<svg id="av2" xmlns="http://www.w3.org/2000/svg" width="21.097" height="28.425" viewBox="0 0 21.097 28.425">
  <path id="Контур_6773" data-name="Контур 6773" d="M40.5,48.328A8.328,8.328,0,1,0,48.828,40,8.337,8.337,0,0,0,40.5,48.328Zm8.328-7.217a7.217,7.217,0,1,1-7.217,7.217A7.225,7.225,0,0,1,48.828,41.11Zm0,0" transform="translate(-38.279 -37.779)" fill="#005050"/>
  <path id="Контур_6774" data-name="Контур 6774" d="M95.074,97.263l2.152,2.12-.5,2.98a.555.555,0,0,0,.8.584l2.681-1.392,2.681,1.392a.555.555,0,0,0,.8-.584l-.5-2.98,2.152-2.12a.555.555,0,0,0-.307-.944l-2.986-.45-1.351-2.7a.555.555,0,0,0-.993,0l-1.351,2.7-2.986.45a.555.555,0,0,0-.307.944Zm3.744-.339a.555.555,0,0,0,.414-.3l.983-1.967.983,1.967a.555.555,0,0,0,.414.3l2.174.327-1.566,1.543a.556.556,0,0,0-.158.487l.36,2.169-1.951-1.013a.555.555,0,0,0-.512,0l-1.951,1.013.36-2.169a.555.555,0,0,0-.158-.487l-1.566-1.543Zm0,0" transform="translate(-89.667 -87.704)" fill="#005050"/>
  <path id="Контур_6775" data-name="Контур 6775" d="M181.61.555A.555.555,0,1,1,181.055,0,.555.555,0,0,1,181.61.555Zm0,0" transform="translate(-170.507)" fill="#005050"/>
  <path id="Контур_6776" data-name="Контур 6776" d="M8.432,5.6A10.549,10.549,0,0,0,3.972,23.641L.628,29.536a.555.555,0,0,0,.6.818l3.8-.789,1.335,3.762a.555.555,0,0,0,1.006.089l3.686-6.48,3.686,6.48a.555.555,0,0,0,.482.281l.049,0a.556.556,0,0,0,.475-.367l1.335-3.762,3.8.789a.555.555,0,0,0,.6-.818l-3.345-5.895A10.549,10.549,0,0,0,13.665,5.6a.555.555,0,0,0-.275,1.076,9.438,9.438,0,1,1-4.684,0A.555.555,0,1,0,8.432,5.6ZM7,31.812,5.906,28.737a.555.555,0,0,0-.636-.358L2.2,29.017l2.647-4.665a10.571,10.571,0,0,0,5.271,1.975Zm9.829-3.433a.555.555,0,0,0-.636.358L15.1,31.812l-3.12-5.485a10.571,10.571,0,0,0,5.272-1.975L19.9,29.017Zm0,0" transform="translate(-0.5 -5.271)" fill="#005050"/>
</svg>
