<svg id="av8" xmlns="http://www.w3.org/2000/svg" width="23.032" height="23.085" viewBox="0 0 23.032 23.085">
  <g id="Сгруппировать_512" data-name="Сгруппировать 512" transform="translate(0 3.723)">
    <g id="Сгруппировать_511" data-name="Сгруппировать 511">
      <path id="Контур_6801" data-name="Контур 6801" d="M19.287,96.383,18.425,93.8a2.606,2.606,0,0,0-2.007-1.74L13.931,91.6v-.193a3.747,3.747,0,0,0,1.11-.986h.752a1.118,1.118,0,0,0,1.117-1.117V84.84a4.84,4.84,0,1,0-9.681,0v2.606a1.492,1.492,0,0,0,1.187,1.458,3.73,3.73,0,0,0,1.791,2.506V91.6l-2.489.453A2.606,2.606,0,0,0,5.712,93.8l-.149.447L4.3,92.976a.373.373,0,0,1,0-.527l1.471-1.47L3.005,88.218,1.343,89.88a2.606,2.606,0,0,0,0,3.686L6.375,98.6a2.605,2.605,0,0,0,3.674.011l1.814-1.662-.566-.564Zm-3.123-7.074a.373.373,0,0,1-.372.372h-.313a3.7,3.7,0,0,0,.243-.776,1.475,1.475,0,0,0,.443-.176Zm-.372-1.221V86.806a.738.738,0,0,1,0,1.282Zm-7.447,0a.738.738,0,0,1,0-1.282Zm0-2.5v.425a1.477,1.477,0,0,0-.372.154V84.84a4.1,4.1,0,0,1,8.191,0v1.324a1.463,1.463,0,0,0-.372-.154v-.425H15.42A4.1,4.1,0,0,1,12.5,84.378l-.436-.436-.436.436a4.1,4.1,0,0,1-2.915,1.207Zm.745,2.606V86.316a4.827,4.827,0,0,0,2.979-1.323,4.825,4.825,0,0,0,2.979,1.323v1.876a2.956,2.956,0,0,1-.4,1.489H12.069v.745h1.964A2.974,2.974,0,0,1,9.09,88.191Zm4.1,3.552v.018l-1.117,1.117-1.117-1.117v-.018a3.72,3.72,0,0,0,2.234,0ZM6.418,94.032a1.862,1.862,0,0,1,1.433-1.243l2.6-.473,1.615,1.615,1.614-1.614,2.6.473a1.862,1.862,0,0,1,1.433,1.243l.536,1.606h-7.7L9.1,94.188,7.491,95.646a.38.38,0,0,1-.526,0l-.813-.813ZM3.005,89.271l1.708,1.708-.4.4L2.6,89.675Zm6.529,8.8a1.862,1.862,0,0,1-2.633,0L1.869,93.04a1.862,1.862,0,0,1,0-2.633l.2-.2L3.781,91.91l-.013.013a1.119,1.119,0,0,0,0,1.58l2.67,2.67a1.111,1.111,0,0,0,.79.327A1.1,1.1,0,0,0,8,96.186l.028-.025,1.715,1.715Zm.763-.7L8.586,95.661l.492-.445,1.709,1.709Z" transform="translate(-0.58 -80)" fill="#ac0000"/>
    </g>
  </g>
  <g id="Сгруппировать_514" data-name="Сгруппировать 514" transform="translate(15.585)">
    <g id="Сгруппировать_513" data-name="Сгруппировать 513">
      <path id="Контур_6802" data-name="Контур 6802" d="M341.758,0h-5.213a1.118,1.118,0,0,0-1.117,1.117V4.1a1.118,1.118,0,0,0,1.117,1.117h.995l-.385,2.246,3.593-2.246h1.01A1.118,1.118,0,0,0,342.875,4.1V1.117A1.118,1.118,0,0,0,341.758,0Zm.372,4.1a.373.373,0,0,1-.372.372h-1.224l-2.365,1.478.254-1.478h-1.878a.373.373,0,0,1-.372-.372V1.117a.373.373,0,0,1,.372-.372h5.213a.373.373,0,0,1,.372.372Z" transform="translate(-335.428)" fill="#ac0000"/>
    </g>
  </g>
  <g id="Сгруппировать_516" data-name="Сгруппировать 516" transform="translate(17.074 1.489)">
    <g id="Сгруппировать_515" data-name="Сгруппировать 515">
      <rect id="Прямоугольник_433" data-name="Прямоугольник 433" width="4.468" height="0.745" fill="#ac0000"/>
    </g>
  </g>
  <g id="Сгруппировать_518" data-name="Сгруппировать 518" transform="translate(17.074 2.979)">
    <g id="Сгруппировать_517" data-name="Сгруппировать 517">
      <rect id="Прямоугольник_434" data-name="Прямоугольник 434" width="2.979" height="0.745" fill="#ac0000"/>
    </g>
  </g>
  <g id="Сгруппировать_520" data-name="Сгруппировать 520" transform="translate(20.798 2.979)">
    <g id="Сгруппировать_519" data-name="Сгруппировать 519">
      <rect id="Прямоугольник_435" data-name="Прямоугольник 435" width="0.745" height="0.745" fill="#ac0000"/>
    </g>
  </g>
  <g id="Сгруппировать_522" data-name="Сгруппировать 522" transform="translate(0 1.117)">
    <g id="Сгруппировать_521" data-name="Сгруппировать 521">
      <path id="Контур_6803" data-name="Контур 6803" d="M12.061,24A10.419,10.419,0,0,0,1.916,32.059l-.706-1.176-.639.383,1.309,2.181,2.181-1.309L3.678,31.5l-1.009.605a9.683,9.683,0,0,1,12.26-6.928l.22-.711A10.419,10.419,0,0,0,12.061,24Z" transform="translate(-0.572 -24)" fill="#ac0000"/>
    </g>
  </g>
  <g id="Сгруппировать_524" data-name="Сгруппировать 524" transform="translate(19.011 6.936)">
    <g id="Сгруппировать_523" data-name="Сгруппировать 523">
      <path id="Контур_6804" data-name="Контур 6804" d="M412.876,150.325l-2.181-1.309-1.308,2.181.639.383.652-1.086a9.689,9.689,0,0,1-1.641,9.224l.578.469a10.427,10.427,0,0,0,1.784-9.88l1.094.656Z" transform="translate(-409.036 -149.016)" fill="#ac0000"/>
    </g>
  </g>
</svg>
