<svg xmlns="http://www.w3.org/2000/svg" width="33.108" height="39.399" viewBox="0 0 33.108 39.399">
  <path id="Icon_awesome-apple" data-name="Icon awesome-apple" d="M27.962,23.07a8.212,8.212,0,0,1,4.4-7.459,9.451,9.451,0,0,0-7.45-3.923c-3.123-.246-6.535,1.821-7.785,1.821-1.319,0-4.345-1.733-6.72-1.733C5.5,11.855.281,15.69.281,23.492a21.923,21.923,0,0,0,1.267,7.142c1.126,3.228,5.19,11.145,9.429,11.013,2.217-.053,3.782-1.574,6.667-1.574,2.8,0,4.248,1.574,6.72,1.574,4.275-.062,7.952-7.257,9.025-10.494a8.719,8.719,0,0,1-5.427-8.084ZM22.984,8.627A8.285,8.285,0,0,0,25.095,2.25a9.327,9.327,0,0,0-5.973,3.07,8.414,8.414,0,0,0-2.252,6.324C19.166,11.82,21.26,10.641,22.984,8.627Z" transform="translate(-0.281 -2.25)" fill="#7d0000"/>
</svg>
