<svg xmlns="http://www.w3.org/2000/svg" width="24.94" height="23.502" viewBox="0 0 24.94 23.502">
  <g id="chat" transform="translate(0 -0.5)">
    <path id="Контур_47" data-name="Контур 47" d="M63.1,47.931l-.032-.031-.037-.036L63,47.839l-.044-.038-.027-.022-.048-.037-.029-.021-.048-.034-.024-.015-.056-.036-.013-.007-.069-.039-.01,0-.075-.038-.009,0-.077-.034-.006,0c-.056-.023-.113-.044-.171-.061l-.018-.005-.073-.02h0l-.09-.02-.023,0-.071-.012-.037,0-.058-.007-.059,0-.037,0-.1,0A1.94,1.94,0,0,0,59.789,49.3v1.251a.435.435,0,0,0,.435.435h3a.435.435,0,0,0,.435-.435V49.3a1.922,1.922,0,0,0-.567-1.369Zm-.3,2.186H60.659V49.3a1.067,1.067,0,0,1,2.133,0Zm0,0" transform="translate(-55.45 -43.463)" fill="#b20000"/>
    <path id="Контур_48" data-name="Контур 48" d="M249.437,47.359A1.94,1.94,0,0,0,247.5,49.3v1.251a.435.435,0,0,0,.435.435h3a.435.435,0,0,0,.435-.435V49.3a1.938,1.938,0,0,0-1.937-1.937Zm1.067,2.753H248.37V49.3a1.067,1.067,0,1,1,2.133,0Zm0,0" transform="translate(-231.96 -43.459)" fill="#b20000"/>
    <path id="Контур_49" data-name="Контур 49" d="M139.377,118.359h-6.008a.435.435,0,0,0-.435.435,3.44,3.44,0,0,0,6.879,0A.435.435,0,0,0,139.377,118.359Zm-1.188,2.252a2.568,2.568,0,0,1-4.348-1.381h5.065A2.551,2.551,0,0,1,138.189,120.611Zm0,0" transform="translate(-124.364 -109.307)" fill="#b20000"/>
    <path id="Контур_50" data-name="Контур 50" d="M19.2,20.76H16.163a2.476,2.476,0,0,0-2.5-2.363,2.653,2.653,0,0,0-2.16,2.8,2.653,2.653,0,0,0,2.16,2.8,2.475,2.475,0,0,0,2.5-2.363H19.2c2.434,0,4.407-2.368,4.41-5.285V12.126a4.7,4.7,0,0,0,1.194-4.438,3.745,3.745,0,0,0-2.972-3.01V3.189A2.5,2.5,0,0,0,19.591.5H2.243A2.5,2.5,0,0,0,0,3.189V14.495a2.5,2.5,0,0,0,2.243,2.689h.765V22.1a.446.446,0,0,0,.214.4.317.317,0,0,0,.39-.072l4.91-5.238H19.591a2.5,2.5,0,0,0,2.243-2.689V13.006a3.037,3.037,0,0,0,1.051-.347v3.687c0,2.437-1.65,4.412-3.683,4.414Zm-5.353,2.372a1.8,1.8,0,0,1-1.616-1.936,1.8,1.8,0,0,1,1.616-1.936,1.8,1.8,0,0,1,1.616,1.936A1.8,1.8,0,0,1,13.849,23.131Zm7.258-8.637a1.69,1.69,0,0,1-1.517,1.818H8.384a.331.331,0,0,0-.241.11l-4.408,4.7V16.748a.4.4,0,0,0-.363-.435H2.243A1.69,1.69,0,0,1,.727,14.495V3.189A1.69,1.69,0,0,1,2.243,1.371H19.59a1.69,1.69,0,0,1,1.517,1.818Zm.726-8.939a3.185,3.185,0,0,1,2.38,3.286,3.185,3.185,0,0,1-2.38,3.286Zm0,0" fill="#b20000"/>
  </g>
</svg>
