<svg id="contact-book" xmlns="http://www.w3.org/2000/svg" width="19.928" height="22.639" viewBox="0 0 19.928 22.639">
  <path id="Контур_6868" data-name="Контур 6868" d="M15.156,0H2.419a2.7,2.7,0,0,0-2.7,2.7V3.859H-1.543a.539.539,0,0,0-.539.539.539.539,0,0,0,.539.539H-.282V8.474H-1.543a.539.539,0,0,0-.539.539.539.539,0,0,0,.539.539H-.282v3.536H-1.543a.539.539,0,0,0-.539.539.539.539,0,0,0,.539.539H-.282V17.7H-1.543a.539.539,0,0,0-.539.539.539.539,0,0,0,.539.539H-.282v1.164a2.7,2.7,0,0,0,2.7,2.7H15.151a2.7,2.7,0,0,0,2.7-2.7V2.7A2.691,2.691,0,0,0,15.156,0Zm1.617,19.944a1.622,1.622,0,0,1-1.617,1.617H2.419A1.622,1.622,0,0,1,.8,19.944V18.78H2.063a.539.539,0,1,0,0-1.078H.8V14.166H2.063a.539.539,0,1,0,0-1.078H.8V9.552H2.063a.539.539,0,1,0,0-1.078H.8V4.938H2.063a.539.539,0,0,0,0-1.078H.8V2.7A1.622,1.622,0,0,1,2.419,1.078H15.156A1.622,1.622,0,0,1,16.773,2.7Zm0,0" transform="translate(2.082)" fill="#0a015a"/>
  <path id="Контур_6869" data-name="Контур 6869" d="M191.907,142.854a2.614,2.614,0,1,0-2.614-2.614A2.614,2.614,0,0,0,191.907,142.854Zm0-4.156a1.536,1.536,0,1,1-1.536,1.536A1.536,1.536,0,0,1,191.907,138.7Zm0,0" transform="translate(-181.04 -131.69)" fill="#0a015a"/>
  <path id="Контур_6870" data-name="Контур 6870" d="M161.164,279a4.027,4.027,0,0,0-4,4.14.541.541,0,0,0,.539.539h6.921a.541.541,0,0,0,.539-.539A4.027,4.027,0,0,0,161.164,279Zm-2.879,3.6a2.9,2.9,0,0,1,5.757,0Zm0,0" transform="translate(-150.297 -266.969)" fill="#0a015a"/>
</svg>
