<svg xmlns="http://www.w3.org/2000/svg" width="41.511" height="28.539" viewBox="0 0 41.511 28.539">
  <path id="logo-sass" d="M41.494,25.822a3.748,3.748,0,0,0-1.686-2.628c.232.165.428.305,0,0-.583-.416-.274-.2,0,0-2.311-1.646-5.325-1.28-7.843-.366a4.95,4.95,0,0,1-.472-4.7c.075-.227.024-.353-.213-.454a3.353,3.353,0,0,0-1.98.038.471.471,0,0,0-.389.355,16.418,16.418,0,0,1-2.824,5.423,4.831,4.831,0,0,1-.2-4.258.273.273,0,0,0-.157-.4,3.117,3.117,0,0,0-2.092.022c-.69.2-1.726,3.616-2.057,4.293-.692,1.414-1.3,3.621-2.48,4.743-1-1.282,1.826-4.177.882-5.339a.869.869,0,0,0-1.264-.05,3.239,3.239,0,0,0-.026-1.546,1.154,1.154,0,0,0-1.223-.85,5.391,5.391,0,0,0-3.619,2.14c-.833.981-3.031,1.591-4.212,2.183-2.03-1.768-6.423-3.644-6.537-6.655-.124-3.393,3.918-5.7,6.616-7.072,3.509-1.792,8.915-4.022,12.9-2.062a2.272,2.272,0,0,1,1.192,2.7c-.76,2.786-3.827,4.645-6.494,5.5a11.669,11.669,0,0,1-4.143.651,7.88,7.88,0,0,1-3.509-1.3c-.166-.032-.153.183-.109.3,1.931,5.062,11.709,1.352,14.266-1.246a7.5,7.5,0,0,0,2.3-4.37A3.975,3.975,0,0,0,23.6,6.656c-6.317-2.925-15.051.905-19.827,4.81C1.7,13.161-.89,15.854.3,18.678c1.292,3.065,5.249,4.637,7.824,6.511C6.04,26.225,3.433,27.3,2.083,29.238A3.433,3.433,0,0,0,1.612,32.8c1.019,2.235,4.726,1.267,6.289.281a6.146,6.146,0,0,0,2.813-3.667A5.786,5.786,0,0,0,10.4,25.4l2.318-1.172c-.624,1.871-.9,4.216.4,5.907a1.692,1.692,0,0,0,2.417.025,14.466,14.466,0,0,0,1.662-3.017,5.471,5.471,0,0,0,.112,2.284,1.019,1.019,0,0,0,1.686.433c2.15-1.476,3.519-5.566,4.578-7.951A13.3,13.3,0,0,0,24.7,24.861a.428.428,0,0,1-.065.583c-.785.865-2.661,2.309-2.843,3.478a.532.532,0,0,0,.461.6,5.111,5.111,0,0,0,3.688-.9A2.554,2.554,0,0,0,27.1,25.743c-.371-1.684.891-3.566,2.092-4.948a8.591,8.591,0,0,0,1.147,2.968c-1.06.931-2.641,2.251-2.414,3.806a.942.942,0,0,0,1.177.789,5.436,5.436,0,0,0,3.192-1.8c.732-.88.47-1.841.15-2.808a9.545,9.545,0,0,1,5.824,0,3.6,3.6,0,0,1,2.128,1.688,1.868,1.868,0,0,1-.815,2.643c-.266.171-.451.311-.361.385s.4.171,1.077-.256a2.42,2.42,0,0,0,1.2-1.761A3.008,3.008,0,0,0,41.494,25.822ZM9.157,27.87A4.684,4.684,0,0,1,7.278,31.2a4.245,4.245,0,0,1-2.15.98c-.764.074-1.358-.118-1.409-.91-.143-2.229,3.318-4.412,5.24-5.07a4.526,4.526,0,0,1,.2,1.669ZM17.516,22c-.316,1.809-1.2,5.055-2.62,6.351-.191.174-.374.164-.471-.063-.839-1.951.3-5.973,2.682-6.594C17.388,21.618,17.562,21.738,17.516,22Zm5.7,6.629q1.024-1.09,2.049-2.183C25.35,27.254,23.841,28.871,23.217,28.625Zm6.544-1.435c-.19.1-.618.2-.635.068-.12-.98.958-2.017,1.627-2.5A1.96,1.96,0,0,1,29.761,27.19Z" transform="translate(0 -5.625)" fill="#706100"/>
</svg>
