<svg xmlns="http://www.w3.org/2000/svg" width="27.051" height="23.938" viewBox="0 0 27.051 23.938">
  <g id="vector" transform="translate(0 -29.327)">
    <path id="Контур_12" data-name="Контур 12" d="M226.881,435.21a.4.4,0,0,1-.4-.4v-1.059a.275.275,0,0,0-.275-.275h-1.069a.275.275,0,0,0-.275.275v1.059a.4.4,0,1,1-.8,0v-1.059a1.072,1.072,0,0,1,1.071-1.071h1.069a1.072,1.072,0,0,1,1.071,1.071v1.059A.4.4,0,0,1,226.881,435.21Z" transform="translate(-212.174 -381.945)" fill="#0097b7"/>
    <g id="Сгруппировать_17" data-name="Сгруппировать 17" transform="translate(0 29.327)">
      <path id="Контур_13" data-name="Контур 13" d="M149.065,130.218a.4.4,0,0,0-.64.474l1.977,2.67a.838.838,0,0,1-.036,1.018l-2.13,2.431h-6l-2.13-2.431a.838.838,0,0,1-.036-1.018l3.925-5.3v3.02a2.029,2.029,0,1,0,2.533.043v-2.992l.874,1.181a.4.4,0,0,0,.64-.474l-1.708-2.306a1.343,1.343,0,0,0-2.2,0l-4.705,6.355a1.638,1.638,0,0,0,.077,2.017l1.776,2.027a1.3,1.3,0,0,0-.752,1.177v1.9a1.3,1.3,0,0,0,.912,1.24l.109,3.138a.4.4,0,0,0,.4.384h.014a.4.4,0,0,0,.384-.412l-.106-3.051h6.037l-.106,3.051a.4.4,0,0,0,.384.412h.014a.4.4,0,0,0,.4-.384l.109-3.156a1.3,1.3,0,0,0,.858-1.222v-1.9a1.3,1.3,0,0,0-.752-1.177l1.776-2.027a1.638,1.638,0,0,0,.077-2.017Zm-3.828-3.46a.569.569,0,0,1,.459.249l.037.05v4.267a.4.4,0,0,0,.179.333,1.232,1.232,0,1,1-1.312-.026.4.4,0,0,0,.192-.341v-4.3a.564.564,0,0,1,.444-.23Zm3.907,13.251a.5.5,0,0,1-.5.5h-6.808a.5.5,0,0,1-.5-.5v-1.9a.5.5,0,0,1,.5-.5h6.808a.5.5,0,0,1,.5.5Z" transform="translate(-131.738 -120.833)" fill="#0097b7"/>
      <path id="Контур_14" data-name="Контур 14" d="M69.5,133.787a7.952,7.952,0,0,1,1.024-3.591.4.4,0,1,0-.692-.393,8.75,8.75,0,0,0-1.128,3.98,1.588,1.588,0,1,0,.8,0Zm-.406,2.327a.792.792,0,1,1,.792-.792A.792.792,0,0,1,69.094,136.113Z" transform="translate(-63.923 -124.279)" fill="#0097b7"/>
      <path id="Контур_15" data-name="Контур 15" d="M26.208,29.327H24.929a.844.844,0,0,0-.843.843v.242H15.008V30.17a.844.844,0,0,0-.843-.843H12.886a.844.844,0,0,0-.843.843v.242H2.965V30.17a.844.844,0,0,0-.843-.843H.843A.844.844,0,0,0,0,30.17v1.279a.844.844,0,0,0,.843.843H2.122a.844.844,0,0,0,.843-.843v-.242H9.876a8.769,8.769,0,0,0-2.922,2.176.4.4,0,0,0,.6.526,7.949,7.949,0,0,1,4.492-2.563v.1a.844.844,0,0,0,.843.843h1.279a.844.844,0,0,0,.843-.843v-.1a7.974,7.974,0,0,1,6.467,7.488,1.588,1.588,0,1,0,.8,0,8.782,8.782,0,0,0-5.1-7.623h6.911v.242a.844.844,0,0,0,.843.843h1.279a.844.844,0,0,0,.843-.843V30.17a.844.844,0,0,0-.843-.843ZM2.169,31.449a.047.047,0,0,1-.047.047H.843A.047.047,0,0,1,.8,31.449V30.17a.047.047,0,0,1,.047-.047H2.122a.047.047,0,0,1,.047.047Zm20.5,8.921a.792.792,0,1,1-.792-.792A.792.792,0,0,1,22.672,40.37Zm-8.46-8.921a.047.047,0,0,1-.047.047H12.886a.047.047,0,0,1-.047-.047V30.17a.047.047,0,0,1,.047-.047h1.279a.047.047,0,0,1,.047.047Zm12.043,0a.047.047,0,0,1-.047.047H24.929a.047.047,0,0,1-.047-.047V30.17a.047.047,0,0,1,.047-.047h1.279a.047.047,0,0,1,.047.047Z" transform="translate(0 -29.327)" fill="#0097b7"/>
    </g>
  </g>
</svg>
