<svg xmlns="http://www.w3.org/2000/svg" width="23.702" height="23.502" viewBox="0 0 23.702 23.502">
  <g id="open-book" transform="translate(0 -2.159)">
    <path id="Контур_16" data-name="Контур 16" d="M282.669,283.825h5.6a.39.39,0,1,0,0-.78h-5.6a.39.39,0,1,0,0,.78Z" transform="translate(-269.212 -267.883)" fill="#1e1666"/>
    <path id="Контур_17" data-name="Контур 17" d="M290.309,320.6H285.6a.712.712,0,0,0-.711.711v3.535a.712.712,0,0,0,.711.711h4.713a.712.712,0,0,0,.711-.711v-3.535A.712.712,0,0,0,290.309,320.6Zm.017,4.246a.017.017,0,0,1-.017.017H285.6a.017.017,0,0,1-.017-.017v-3.535a.017.017,0,0,1,.017-.017h4.713a.017.017,0,0,1,.017.017Z" transform="translate(-271.697 -303.697)" fill="#1e1666"/>
    <path id="Контур_18" data-name="Контур 18" d="M386.586,3.892a.347.347,0,0,0,.347-.347V2.506a.347.347,0,0,0-.694,0V3.545A.347.347,0,0,0,386.586,3.892Z" transform="translate(-368.359)" fill="#1e1666"/>
    <path id="Контур_19" data-name="Контур 19" d="M318.561,24.994a.347.347,0,0,0,.491-.491l-.734-.734a.347.347,0,0,0-.491.491Z" transform="translate(-303.017 -20.513)" fill="#1e1666"/>
    <path id="Контур_20" data-name="Контур 20" d="M439.483,24.994l.734-.734a.347.347,0,0,0-.491-.491l-.734.734a.347.347,0,0,0,.491.491Z" transform="translate(-418.573 -20.513)" fill="#1e1666"/>
    <path id="Контур_21" data-name="Контур 21" d="M475.95,83.886h-1.039a.347.347,0,0,0,0,.694h1.039a.347.347,0,0,0,0-.694Z" transform="translate(-452.595 -77.944)" fill="#1e1666"/>
    <path id="Контур_22" data-name="Контур 22" d="M275.826,84.58h1.039a.347.347,0,1,0,0-.694h-1.039a.347.347,0,0,0,0,.694Z" transform="translate(-262.726 -77.944)" fill="#1e1666"/>
    <path id="Контур_23" data-name="Контур 23" d="M74.788,169.229h5.6a.39.39,0,0,0,0-.78h-5.6a.39.39,0,1,0,0,.78Z" transform="translate(-70.954 -158.592)" fill="#1e1666"/>
    <path id="Контур_24" data-name="Контур 24" d="M74.788,207.428h5.6a.39.39,0,1,0,0-.78h-5.6a.39.39,0,1,0,0,.78Z" transform="translate(-70.954 -195.023)" fill="#1e1666"/>
    <path id="Контур_25" data-name="Контур 25" d="M80.775,245.236a.39.39,0,0,0-.39-.39h-5.6a.39.39,0,1,0,0,.78h5.6A.39.39,0,0,0,80.775,245.236Z" transform="translate(-70.954 -231.452)" fill="#1e1666"/>
    <path id="Контур_26" data-name="Контур 26" d="M74.788,388.87h5.6a.39.39,0,1,0,0-.78h-5.6a.39.39,0,1,0,0,.78Z" transform="translate(-70.954 -368.065)" fill="#1e1666"/>
    <path id="Контур_27" data-name="Контур 27" d="M21.978,67.479h-.439a3.311,3.311,0,0,0-.442-2,.347.347,0,1,0-.6.353,2.623,2.623,0,0,1-.178,2.923l-.011.014A4.832,4.832,0,0,0,19.3,70.24H17.158a3.972,3.972,0,0,0-.819-1.25,2.637,2.637,0,0,1,1.991-4.466,2.581,2.581,0,0,1,1.15.319.347.347,0,1,0,.333-.609,3.328,3.328,0,0,0-4.867,2.36H12.114a1.012,1.012,0,0,0-.67.253,1.013,1.013,0,0,0-.67-.253H2.133a.661.661,0,0,0-.66.66v.226H.91a.911.911,0,0,0-.91.91V77.6a.347.347,0,0,0,.694,0v-.056c.047,0,.008,0,.779,0V81.4a.661.661,0,0,0,.66.66h8.641c.2,0,.261.152.323.21v1.078a1.507,1.507,0,0,0-.811-.238H.91A.216.216,0,0,1,.694,82.9V79.215a.347.347,0,0,0-.694,0V82.9a.911.911,0,0,0,.91.91h9.376a.815.815,0,0,1,.7.4.53.53,0,0,0,.917,0,.815.815,0,0,1,.7-.4h9.376a.911.911,0,0,0,.91-.91V68.389a.911.911,0,0,0-.91-.91Zm-4.714,4.18v-.725h1.925v.725a.962.962,0,1,1-1.925,0Zm-5.151-4.372H14.9a3.354,3.354,0,0,0,.361,1.382H13.457a.39.39,0,0,0,0,.78h2.361a3.249,3.249,0,0,1,.668.989h-3.03a.39.39,0,0,0,0,.78H16.57v.442a1.648,1.648,0,0,0,.093.546H13.457a.39.39,0,0,0,0,.78l3.761-.013a1.655,1.655,0,0,0,2.665-1.313V70.649a3.463,3.463,0,0,1,.836-1.29V81.37H12.114a1.032,1.032,0,0,0-.316.051l-.006,0V67.61a.323.323,0,0,1,.323-.323Zm-11.42,1.1a.216.216,0,0,1,.215-.215h.564v6.075H.763q-.035,0-.069,0Zm.069,8.459a.069.069,0,0,1-.069-.069V75.012a.069.069,0,0,1,.069-.069h1.31v1.9H.763Zm6.544.694a.354.354,0,0,0,.2-.062h0l1.544-1.087a.607.607,0,0,0,0-.993L7.507,74.312h0a.346.346,0,0,0-.182-.061H2.168V67.288h8.606a.323.323,0,0,1,.323.323V81.422a1.039,1.039,0,0,0-.323-.052H2.168V77.542H7.307Zm-.347-.694H2.768v-1.9H6.96ZM8.55,75.9l-.9.63V75.265Zm13.644,7a.216.216,0,0,1-.215.215H12.6a1.507,1.507,0,0,0-.811.238V82.275c.066-.062.118-.21.323-.21h8.641a.661.661,0,0,0,.66-.66V68.174h.564a.216.216,0,0,1,.215.215Z" transform="translate(0 -58.813)" fill="#1e1666"/>
  </g>
</svg>
