<svg xmlns="http://www.w3.org/2000/svg" width="23.502" height="23.502" viewBox="0 0 23.502 23.502">
  <g id="ow5" transform="translate(-0.001)">
    <g id="Сгруппировать_23" data-name="Сгруппировать 23" transform="translate(0.001)">
      <g id="Сгруппировать_22" data-name="Сгруппировать 22" transform="translate(0)">
        <path id="Контур_41" data-name="Контур 41" d="M21.208,4.223H19.28V2.3a2.3,2.3,0,0,0-2.3-2.3H2.3A2.3,2.3,0,0,0,0,2.3V16.984a2.3,2.3,0,0,0,2.3,2.3H4.224v1.928a2.3,2.3,0,0,0,2.3,2.3H21.208a2.3,2.3,0,0,0,2.3-2.3V6.518A2.3,2.3,0,0,0,21.208,4.223ZM2.3,18.361A1.379,1.379,0,0,1,.919,16.984V2.3A1.379,1.379,0,0,1,2.3.918H16.985A1.379,1.379,0,0,1,18.362,2.3V16.984a1.379,1.379,0,0,1-1.377,1.377Zm20.289,2.846a1.379,1.379,0,0,1-1.377,1.377H6.519a1.379,1.379,0,0,1-1.377-1.377V19.279H16.985a2.3,2.3,0,0,0,2.3-2.3V5.141h1.928a1.379,1.379,0,0,1,1.377,1.377Z" transform="translate(-0.001)" fill="#bc0000"/>
      </g>
    </g>
    <g id="Сгруппировать_25" data-name="Сгруппировать 25" transform="translate(6.059 20.977)">
      <g id="Сгруппировать_24" data-name="Сгруппировать 24">
        <path id="Контур_42" data-name="Контур 42" d="M132.451,457h-.012a.459.459,0,0,0,0,.918h.012a.459.459,0,0,0,0-.918Z" transform="translate(-131.98 -457.002)" fill="#bc0000"/>
      </g>
    </g>
    <g id="Сгруппировать_27" data-name="Сгруппировать 27" transform="translate(7.39 20.977)">
      <g id="Сгруппировать_26" data-name="Сгруппировать 26">
        <path id="Контур_43" data-name="Контур 43" d="M174.8,457H161.439a.459.459,0,1,0,0,.918H174.8a.459.459,0,0,0,0-.918Z" transform="translate(-160.98 -457.002)" fill="#bc0000"/>
      </g>
    </g>
    <g id="Сгруппировать_29" data-name="Сгруппировать 29" transform="translate(4.58 1.607)">
      <g id="Сгруппировать_28" data-name="Сгруппировать 28">
        <path id="Контур_44" data-name="Контур 44" d="M100.236,35h-.012a.459.459,0,0,0,0,.918h.012a.459.459,0,0,0,0-.918Z" transform="translate(-99.765 -35)" fill="#bc0000"/>
      </g>
    </g>
    <g id="Сгруппировать_31" data-name="Сгруппировать 31" transform="translate(1.837 1.607)">
      <g id="Сгруппировать_30" data-name="Сгруппировать 30">
        <path id="Контур_45" data-name="Контур 45" d="M41.885,35H40.46a.459.459,0,0,0,0,.918h1.425a.459.459,0,0,0,0-.918Z" transform="translate(-40.001 -35)" fill="#bc0000"/>
      </g>
    </g>
    <g id="Сгруппировать_33" data-name="Сгруппировать 33" transform="translate(5.754 5.393)">
      <g id="Сгруппировать_32" data-name="Сгруппировать 32">
        <path id="Контур_46" data-name="Контур 46" d="M133.051,121.336a1.555,1.555,0,0,0-.731-.949l-2.245-1.3-.068-.042-2.24-1.293a1.571,1.571,0,0,0-2.434,1.312v5.353a.464.464,0,0,0,0,.055,1.568,1.568,0,0,0,2.353,1.3l2.318-1.338.038-.024,2.259-1.3a1.567,1.567,0,0,0,.747-1.775Zm-.95.731a.647.647,0,0,1-.246.243l-.007,0-2.3,1.328-.038.024-2.279,1.316a.651.651,0,0,1-.976-.562.451.451,0,0,0,0-.047v-5.307h0a.653.653,0,0,1,1.017-.542l.027.017,2.253,1.3.033.021.023.014,2.257,1.3a.648.648,0,0,1,.239.885Z" transform="translate(-125.332 -117.497)" fill="#bc0000"/>
      </g>
    </g>
  </g>
</svg>
