<svg xmlns="http://www.w3.org/2000/svg" width="54.087" height="54.083" viewBox="0 0 54.087 54.083">
  <g id="payment-method" transform="translate(0 -0.023)">
    <g id="Сгруппировать_591" data-name="Сгруппировать 591" transform="translate(16.136 40.571)">
      <g id="Сгруппировать_590" data-name="Сгруппировать 590">
        <path id="Контур_6858" data-name="Контур 6858" d="M154.842,384.707a1.1,1.1,0,0,0-.06-.2,1.07,1.07,0,0,0-.1-.182,1.026,1.026,0,0,0-.292-.292,1.04,1.04,0,0,0-.183-.1.994.994,0,0,0-.2-.06,1.042,1.042,0,0,0-.412,0,1.025,1.025,0,0,0-.2.06,1.07,1.07,0,0,0-.182.1,1.056,1.056,0,0,0-.389.473,1.021,1.021,0,0,0-.06.2,1.014,1.014,0,0,0,0,.412.989.989,0,0,0,.06.2.975.975,0,0,0,.1.183,1.027,1.027,0,0,0,.292.292,1.069,1.069,0,0,0,.182.1,1.021,1.021,0,0,0,.2.06,1.015,1.015,0,0,0,.412,0,.99.99,0,0,0,.2-.06,1.045,1.045,0,0,0,.183-.1,1.027,1.027,0,0,0,.292-.292,1.04,1.04,0,0,0,.1-.183,1.067,1.067,0,0,0,.06-.2,1.015,1.015,0,0,0,0-.412Z" transform="translate(-152.75 -383.857)" fill="#fff"/>
      </g>
    </g>
    <g id="Сгруппировать_593" data-name="Сгруппировать 593" transform="translate(0 32.761)">
      <g id="Сгруппировать_592" data-name="Сгруппировать 592">
        <path id="Контур_6859" data-name="Контур 6859" d="M48.593,318.908l-.013-.031c-.972-2.275-3.253-3.116-5.951-2.194l-7.36,2.035a4.825,4.825,0,0,0-2.988-2.942l-.028-.01-8.09-2.746a8.344,8.344,0,0,0-6.732-3.1c-2.76,0-5.2,1.893-6.6,3.957H1.056A1.056,1.056,0,0,0,0,314.935v13.319a1.056,1.056,0,0,0,1.056,1.056H7.337a1.056,1.056,0,0,0,1.056-1.056v-.912h2.946a1.056,1.056,0,0,0,1.056-1.056v-.3a7.49,7.49,0,0,1,3.859,1.385,63.928,63.928,0,0,0,6.347,3.24l.046.02a9.482,9.482,0,0,0,3.4.641,8.42,8.42,0,0,0,3.5-.749l16.268-5.825c.029-.01.057-.022.085-.035C47.454,323.943,49.77,321.927,48.593,318.908ZM6.281,327.2H2.113V315.992H6.281Zm4-1.968H8.394v-9.237h1.889Zm34.772-2.509-16.26,5.822-.048.018-.043.018a6.847,6.847,0,0,1-5.261.09,61.2,61.2,0,0,1-6.134-3.133,9.508,9.508,0,0,0-4.914-1.672v-8.508c1-1.641,2.943-3.321,5.037-3.321a6.1,6.1,0,0,1,5.171,2.429,1.057,1.057,0,0,0,.56.447l8.4,2.849a2.37,2.37,0,0,1,1.724,2.8,2.058,2.058,0,0,1-2.529,1.421l-9.465-3a1.056,1.056,0,0,0-.638,2.014l9.481,3,.03.009a4.146,4.146,0,0,0,3.171-.368,4.143,4.143,0,0,0,1.982-2.5q.036-.128.065-.257l7.932-2.2c1.146-.391,2.649-.532,3.319,1.01C47.324,321.5,45.523,322.5,45.055,322.72Z" transform="translate(0 -309.922)" fill="#fff"/>
      </g>
    </g>
    <g id="Сгруппировать_595" data-name="Сгруппировать 595" transform="translate(35.838 13.067)">
      <g id="Сгруппировать_594" data-name="Сгруппировать 594">
        <path id="Контур_6860" data-name="Контур 6860" d="M341.343,124.348a1.029,1.029,0,0,0-.061-.2,1,1,0,0,0-.1-.182,1.026,1.026,0,0,0-.292-.292,1.068,1.068,0,0,0-.182-.1,1.052,1.052,0,0,0-.611-.06.992.992,0,0,0-.2.06,1.042,1.042,0,0,0-.183.1,1.026,1.026,0,0,0-.292.292,1.074,1.074,0,0,0-.1.182,1.024,1.024,0,0,0-.06.2,1.015,1.015,0,0,0,0,.412.992.992,0,0,0,.06.2,1.045,1.045,0,0,0,.1.183,1.026,1.026,0,0,0,.292.292,1.043,1.043,0,0,0,.183.1,1.067,1.067,0,0,0,.2.06,1.039,1.039,0,0,0,.206.021,1.059,1.059,0,0,0,.207-.021,1.118,1.118,0,0,0,.2-.06,1.07,1.07,0,0,0,.182-.1,1.026,1.026,0,0,0,.292-.292.979.979,0,0,0,.1-.183,1,1,0,0,0,.061-.2,1.067,1.067,0,0,0,0-.412Z" transform="translate(-339.25 -123.498)" fill="#fff"/>
      </g>
    </g>
    <g id="Сгруппировать_597" data-name="Сгруппировать 597" transform="translate(3.137 0.023)">
      <g id="Сгруппировать_596" data-name="Сгруппировать 596">
        <path id="Контур_6861" data-name="Контур 6861" d="M79.585,3.6H73.3a1.056,1.056,0,0,0-1.056,1.056V5.57H69.3a1.056,1.056,0,0,0-1.056,1.056v.3a7.49,7.49,0,0,1-3.859-1.385A63.924,63.924,0,0,0,58.041,2.3l-.046-.02a8.987,8.987,0,0,0-6.9.108L46.845,3.916,43.262.333a1.056,1.056,0,0,0-1.494,0L30,12.1a1.048,1.048,0,0,0,0,1.494l20.1,20.1a1.141,1.141,0,0,0,1.494,0l10.74-10.74c.279.024.569.037.869.037,2.76,0,5.2-1.893,6.6-3.957h9.778a1.056,1.056,0,0,0,1.056-1.056V4.657A1.056,1.056,0,0,0,79.585,3.6ZM42.515,2.574l2.408,2.408a4.606,4.606,0,0,1-4.815,0ZM34.653,15.251l-2.408-2.408,2.408-2.408a4.606,4.606,0,0,1,0,4.816Zm16.2,16.2-2.407-2.407a4.6,4.6,0,0,1,4.815,0Zm3.929-3.929a6.713,6.713,0,0,0-7.859,0L36.175,16.773a6.713,6.713,0,0,0,0-7.859l2.41-2.41a6.713,6.713,0,0,0,7.859,0l2.285,2.285a4.187,4.187,0,0,0-3.143,2.3,6.021,6.021,0,1,0,6.923,7.453l3.567,1.211a6.745,6.745,0,0,0,1.119,5.354ZM48.36,17.136l.028.01,2.112.717A3.909,3.909,0,1,1,45.194,13.4,4.677,4.677,0,0,0,48.36,17.136Zm10.357,6.451a4.621,4.621,0,0,1-.675-2.2A8.214,8.214,0,0,0,59.905,22.4Zm9.529-6.032c-1,1.641-2.943,3.321-5.037,3.321a7.689,7.689,0,0,1-1.1-.078h0a6.051,6.051,0,0,1-3.913-2.141c-.022-.032-.113-.152-.127-.172A1.053,1.053,0,0,0,57.481,18l-8.4-2.851a2.371,2.371,0,0,1-1.724-2.8v0a2.058,2.058,0,0,1,2.528-1.417l9.465,3a1.056,1.056,0,1,0,.638-2.014L52.462,9.533,52.4,9.467l0,0-3.9-3.9,3.35-1.2.036-.014.011,0,.043-.018a6.846,6.846,0,0,1,5.261-.09,61.193,61.193,0,0,1,6.134,3.133,9.507,9.507,0,0,0,4.914,1.672Zm4-.635H70.359V7.682h1.889Zm6.281,0H74.361V5.714h4.168Z" transform="translate(-29.691 -0.023)" fill="#fff"/>
      </g>
    </g>
  </g>
</svg>
