<svg id="av1" xmlns="http://www.w3.org/2000/svg" width="23.439" height="27.485" viewBox="0 0 23.439 27.485">
  <g id="Сгруппировать_485" data-name="Сгруппировать 485" transform="translate(0 0)">
    <g id="Сгруппировать_484" data-name="Сгруппировать 484" transform="translate(0)">
      <path id="Контур_6767" data-name="Контур 6767" d="M60.695,4.746a45.72,45.72,0,0,1-11-4.666.578.578,0,0,0-.588,0,44.468,44.468,0,0,1-11,4.666.578.578,0,0,0-.425.558v5.907a17,17,0,0,0,5.161,12.417c2.535,2.484,5.487,3.857,6.559,3.857s4.024-1.373,6.559-3.857A17,17,0,0,0,61.12,11.211V5.3A.578.578,0,0,0,60.695,4.746Zm-.731,6.465A15.861,15.861,0,0,1,55.15,22.8c-2.492,2.442-5.157,3.527-5.75,3.527s-3.257-1.084-5.75-3.527a15.862,15.862,0,0,1-4.814-11.591V5.742A45.533,45.533,0,0,0,49.4,1.248,46.974,46.974,0,0,0,59.964,5.742Z" transform="translate(-37.681 0)" fill="#0042c5"/>
      <path id="Контур_6768" data-name="Контур 6768" d="M84.633,99.31a.578.578,0,0,0-.75-.326c-1.033.407-2.093.782-3.151,1.113a.578.578,0,0,0-.405.552v2.233a.578.578,0,1,0,1.156,0v-1.81c.949-.307,1.9-.647,2.824-1.012A.578.578,0,0,0,84.633,99.31Z" transform="translate(-78.038 -93.632)" fill="#0042c5"/>
      <path id="Контур_6769" data-name="Контур 6769" d="M170.782,87.365a.578.578,0,0,0,.232-.049l.011,0a.578.578,0,1,0-.467-1.058l-.009,0a.578.578,0,0,0,.234,1.107Z" transform="translate(-163.088 -81.577)" fill="#0042c5"/>
      <path id="Контур_6770" data-name="Контур 6770" d="M307.678,345.622a.578.578,0,0,0-.8.168,14.074,14.074,0,0,1-1.661,2.075,14.768,14.768,0,0,1-1.658,1.475.578.578,0,1,0,.7.919,15.936,15.936,0,0,0,1.788-1.591,15.213,15.213,0,0,0,1.8-2.247A.578.578,0,0,0,307.678,345.622Z" transform="translate(-289.07 -326.98)" fill="#0042c5"/>
      <path id="Контур_6771" data-name="Контур 6771" d="M276.885,432.045l-.033.02a.578.578,0,1,0,.579,1l.038-.022a.578.578,0,1,0-.584-1Z" transform="translate(-263.74 -408.777)" fill="#0042c5"/>
      <path id="Контур_6772" data-name="Контур 6772" d="M126.03,158.862a1.88,1.88,0,0,0-2.659,2.659l3.414,3.414a1.881,1.881,0,0,0,2.659,0l7.127-7.127a1.88,1.88,0,0,0-2.659-2.659l-5.8,5.8Zm8.7-2.9a.724.724,0,1,1,1.024,1.023l-7.127,7.127a.724.724,0,0,1-1.024,0l-3.414-3.414a.724.724,0,0,1,1.024-1.024l2.493,2.493a.578.578,0,0,0,.818,0Z" transform="translate(-118.251 -146.3)" fill="#0042c5"/>
    </g>
  </g>
</svg>
