<svg width="118" height="63" viewBox="0 0 118 63" fill="none" xmlns="http://www.w3.org/2000/svg">
<path d="M32.1241 24.5153L12.6728 53.201H28.2191C29.398 53.201 30.4035 53.6143 31.24 54.4452C32.0764 55.2761 32.4925 56.275 32.4925 57.446V58.1779C32.4925 59.3489 32.0764 60.3477 31.24 61.1786C30.4035 62.0095 29.398 62.4228 28.2191 62.4228H4.27339C3.09452 62.4228 2.08902 62.0095 1.25255 61.1786C0.416071 60.3477 0 59.3489 0 58.1779V57.2996C0 56.5204 0.195033 55.7885 0.589433 55.1039L19.967 26.5646H5.08386C3.90499 26.5646 2.89949 26.1513 2.06302 25.3204C1.22654 24.4895 0.810471 23.4906 0.810471 22.3196V21.5877C0.810471 20.4167 1.22654 19.4179 2.06302 18.587C2.89949 17.7561 3.90499 17.3428 5.08386 17.3428H28.4402C29.619 17.3428 30.6245 17.7561 31.461 18.587C32.2975 19.4179 32.7135 20.4167 32.7135 21.5877V22.3196C32.7135 23.0989 32.5185 23.8308 32.1241 24.5153Z" fill="white"/>
<path d="M115.495 41.8613C117.164 44.156 118 46.554 118 49.9207C118 52.069 117.792 52.9774 117.103 54.6349C116.466 56.3915 115.408 58.0016 113.935 59.4654C111.135 62.1475 108.526 63 103.858 63C101.205 63 98.8477 62.6082 96.7847 61.8289C94.622 61.0497 92.7584 60.0982 91.1851 58.9746C90.2013 58.2901 89.5988 57.3989 89.3778 56.301C89.1568 55.2032 89.3648 54.1656 90.0062 53.1927L90.4483 52.534C91.0378 51.6083 91.9479 50.9712 93.1744 50.6311C94.3533 50.3857 95.4325 50.6052 96.4163 51.2898C96.9061 51.5825 97.4478 51.8882 98.0373 52.2068C98.6267 52.5254 99.2421 52.8913 99.9529 53.1238C101.227 53.5328 102.055 53.6705 103.875 53.8557C103.884 53.8557 104.772 53.9805 105.756 53.7265C105.765 53.7265 106.584 53.5629 107.377 52.8827C107.382 52.8827 108.053 52.3316 108.422 51.4835C108.435 51.4534 108.556 51.1864 108.651 50.786C108.656 50.7645 108.729 50.5191 108.755 49.968C108.755 49.9508 108.79 49.4988 108.591 48.7324C108.582 48.7023 108.365 47.9876 107.928 47.4495C107.685 47.1524 107.295 46.7391 106.679 46.3258C106.064 45.9125 105.18 45.4519 104.001 45.0127H103.927L100.98 43.9149C99.2595 43.2347 97.7252 42.4985 96.373 41.7192C95.0208 40.94 93.8549 40.0359 92.8711 39.0112C90.613 36.7166 89.4818 33.9268 89.4818 29.7808C89.4818 27.5378 89.8762 26.4228 90.6607 24.7136C91.3498 23.0044 92.403 21.5406 93.8289 20.3223C95.2548 19.1512 96.8237 18.273 98.5444 17.6875C100.066 17.201 101.76 16.9556 103.628 16.9556C105.986 16.9556 109.254 17.8209 111.317 18.5528C113.233 19.2373 114.78 19.9908 115.959 20.8217C116.942 21.4072 117.567 22.2381 117.835 23.3101C118.104 24.3821 117.97 25.4067 117.432 26.384L117.064 27.0427C116.474 28.0674 115.629 28.9241 114.411 29.1652C113.198 29.4063 112.27 29.2341 111.096 28.6529C110.606 28.3601 110.103 28.1018 109.583 27.8822C109.067 27.6627 108.539 27.4302 107.997 27.1848C107.16 26.8447 104.998 26.1731 103.624 26.1731C101.903 26.1731 100.755 26.5605 99.9226 27.3441C99.8229 27.4431 99.5325 27.7229 99.2681 28.1836C98.9734 28.6873 98.8001 29.1135 98.7351 29.8712C98.7264 29.9617 98.7264 30.4912 98.7741 30.8528C98.8217 31.2188 98.9171 31.5503 99.0168 31.744C99.2421 32.2477 99.4285 32.5448 99.7232 32.7859C100.118 33.1777 100.581 33.5436 101.123 33.8837C101.518 34.0818 101.934 34.2755 102.376 34.4692C102.818 34.663 103.308 34.861 103.849 35.0547H103.923L107.533 36.4453C111.269 37.8618 113.922 39.6656 115.495 41.8613Z" fill="white"/>
<path d="M73.0308 54.4447C72.1943 53.6138 71.1888 53.2005 70.0099 53.2005H56.0109V46.381H64.5837C65.7625 46.381 66.755 45.9677 67.5655 45.1368C68.376 44.3059 68.779 43.3071 68.779 42.136V41.4042C68.779 40.2331 68.376 39.2343 67.5655 38.4034C66.755 37.5725 65.7582 37.1592 64.5837 37.1592H56.0109V33.8829V30.6239C56.0109 29.4528 55.5948 28.454 54.7583 27.6231C53.9218 26.7922 52.9163 26.3789 51.7375 26.3789H51.0007C49.8218 26.3789 48.8163 26.7922 47.9798 27.6231C47.1434 28.454 46.7273 29.4528 46.7273 30.6239V40.5948V58.1773C46.7273 59.3484 47.1434 60.3472 47.9798 61.1781C48.8163 62.009 49.8218 62.4223 51.0007 62.4223H70.0099C71.1888 62.4223 72.1943 62.009 73.0308 61.1781C73.8672 60.3472 74.2833 59.3484 74.2833 58.1773V57.4454C74.2833 56.2744 73.8629 55.2756 73.0308 54.4447Z" fill="white"/>
<path fill-rule="evenodd" clip-rule="evenodd" d="M73.2301 5.36969C73.2301 5.36969 67.5264 -1.88463 59.4651 0.470335C59.4651 0.470335 57.8875 0.8535 59.4651 2.05035C61.0427 3.24721 64.848 4.90041 64.1805 7.12622C63.5174 9.34772 68.1549 4.48711 73.2301 5.36969Z" fill="#BF58F3"/>
<path fill-rule="evenodd" clip-rule="evenodd" d="M58.8756 1.45251C58.9796 1.62472 59.166 1.82276 59.465 2.05094C61.0426 3.24779 64.848 4.901 64.1805 7.1268C63.5651 9.18039 67.4701 5.19806 72.0642 5.26694C70.1659 3.37695 65.368 -0.471927 59.1833 1.33627C59.1877 1.33196 59.036 1.36641 58.8756 1.45251Z" fill="#AA40E1"/>
<path fill-rule="evenodd" clip-rule="evenodd" d="M72.5149 18.9345C72.5149 18.9345 69.143 24.7638 65.4374 25.1642C61.7318 25.5689 68.3802 20.0754 67.2794 17.6473C66.1785 15.2234 72.5149 18.9345 72.5149 18.9345Z" fill="#B170E0"/>
<path fill-rule="evenodd" clip-rule="evenodd" d="M85.2094 21.756C85.2094 21.756 86.9517 25.4198 85.3697 27.0127C83.7835 28.6056 80.5242 25.691 78.2965 23.2112C76.0731 20.7314 51.4383 14.8806 37.708 35.7308C37.708 35.7308 36.3471 37.4873 38.8045 39.528C41.2576 41.5687 44.1831 43.4716 43.2122 47.6993C42.2414 51.9271 41.1102 45.9988 37.4653 44.5823C37.4653 44.5823 35.3459 43.8806 35.0035 40.9186C35.0035 40.9186 34.2321 42.7828 32.1864 43.0239C30.1407 43.2649 27.2195 42.9894 26.292 46.2399C25.3646 49.486 22.1877 42.546 26.1013 39.8251C30.0107 37.1042 34.5571 39.0028 35.6926 33.4921C37.9073 22.7591 44.3998 10.0759 60.3838 5.87403C67.0236 4.13041 73.4857 3.36838 79.9218 6.20983C85.101 8.4873 90.2325 13.0422 85.2094 21.756Z" fill="#D294F7"/>
<path fill-rule="evenodd" clip-rule="evenodd" d="M85.2094 21.7552C85.2094 21.7552 86.9517 25.4189 85.3697 27.0119C84.776 27.606 83.9481 27.5715 83.0293 27.1668C83.0293 27.1668 80.0865 24.9712 79.7138 22.1469C79.4841 20.4033 76.0775 17.3079 71.0543 16.111C70.9329 16.111 68.9523 16.1584 66.9109 18.311C64.8046 20.5325 61.4153 23.7184 58.5245 23.0209C56.0498 22.4225 60.8086 19.426 60.4228 16.7783L60.2538 16.8386C46.1551 22.289 39.6236 31.739 37.708 35.7256C37.708 35.7256 36.3471 37.4822 38.8045 39.5229C41.2576 41.5635 44.1831 43.4664 43.2122 47.6942C42.2414 51.9219 41.1102 45.9936 37.4653 44.5772C37.4653 44.5772 35.3459 43.8754 35.0035 40.9134C35.0035 40.9134 34.2321 42.7776 32.1864 43.0187C30.1407 43.2598 27.2195 42.9843 26.292 46.2347C25.3646 49.4808 22.1877 42.5408 26.1013 39.8199C30.0107 37.099 34.1107 38.8857 35.6926 33.4869C36.9148 29.3108 39.9314 11.2762 60.3838 5.86888C67.0366 4.11234 73.4857 3.36323 79.9218 6.20468C85.101 8.48646 90.2325 13.0414 85.2094 21.7552Z" fill="#AA40E1"/>
<path fill-rule="evenodd" clip-rule="evenodd" d="M64.2152 6.21718C63.0884 6.51424 61.7231 6.87157 60.5529 7.19877C43.0216 12.1412 38.7872 26.0729 36.1825 34.9804C34.6005 40.3792 30.5005 38.5925 26.5912 41.3134C24.8012 42.5576 24.4978 44.6844 24.7795 46.3161C23.9777 44.8222 23.67 41.5028 26.1014 39.8109C30.0151 37.09 34.1151 38.8766 35.6927 33.4779C36.9149 29.3018 39.7234 11.3921 60.5009 5.84262C61.5324 5.56709 60.7436 5.72208 63.5088 5.11934C66.3476 4.32718 69.1691 4.03012 72.0729 4.32288C74.734 4.5898 76.7233 4.81798 79.9219 6.19565C83.1378 7.58194 86.3146 9.88954 87.0904 13.4887C85.8682 10.742 83.1464 8.90364 80.4116 7.69818C77.0484 6.21287 73.5855 5.45515 70.1442 5.45515C68.1506 5.45515 66.1699 5.70486 64.2152 6.21718Z" fill="#BF58F3"/>
</svg>
