<svg id="av3" xmlns="http://www.w3.org/2000/svg" width="28.762" height="28.425" viewBox="0 0 28.762 28.425">
  <g id="Сгруппировать_487" data-name="Сгруппировать 487" transform="translate(16.85 14.224)">
    <g id="Сгруппировать_486" data-name="Сгруппировать 486">
      <path id="Контур_6777" data-name="Контур 6777" d="M302.313,260.254a1.081,1.081,0,1,1,1.236-1.07.562.562,0,0,0,1.124,0,2.235,2.235,0,0,0-1.8-2.13v-.292a.562.562,0,0,0-1.124,0v.292a2.235,2.235,0,0,0-1.8,2.13,2.283,2.283,0,0,0,2.359,2.193,1.081,1.081,0,1,1-1.236,1.07.562.562,0,0,0-1.124,0,2.235,2.235,0,0,0,1.8,2.13v.243a.562.562,0,0,0,1.124,0v-.243a2.235,2.235,0,0,0,1.8-2.13A2.283,2.283,0,0,0,302.313,260.254Z" transform="translate(-299.954 -256.201)" fill="#00821f"/>
    </g>
  </g>
  <g id="Сгруппировать_489" data-name="Сгруппировать 489" transform="translate(21.567 12.234)">
    <g id="Сгруппировать_488" data-name="Сгруппировать 488">
      <path id="Контур_6778" data-name="Контур 6778" d="M387.719,223.486a7.319,7.319,0,0,0-2.99-2.646.562.562,0,1,0-.487,1.013,6.185,6.185,0,0,1,2.785,8.471.562.562,0,1,0,.992.528,7.311,7.311,0,0,0-.3-7.365Z" transform="translate(-383.924 -220.785)" fill="#00821f"/>
    </g>
  </g>
  <g id="Сгруппировать_491" data-name="Сгруппировать 491" transform="translate(19.493 11.572)">
    <g id="Сгруппировать_490" data-name="Сгруппировать 490">
      <path id="Контур_6779" data-name="Контур 6779" d="M347.6,209h-.038a.562.562,0,1,0,0,1.124h.035a.562.562,0,0,0,0-1.124Z" transform="translate(-347 -209.001)" fill="#00821f"/>
    </g>
  </g>
  <g id="Сгруппировать_493" data-name="Сгруппировать 493" transform="translate(11.909 15.151)">
    <g id="Сгруппировать_492" data-name="Сгруппировать 492">
      <path id="Контур_6780" data-name="Контур 6780" d="M216.631,282.008a6.185,6.185,0,0,1-2.785-8.471.562.562,0,0,0-.992-.528,7.306,7.306,0,0,0,3.291,10.011.562.562,0,1,0,.487-1.013Z" transform="translate(-212.002 -272.711)" fill="#00821f"/>
    </g>
  </g>
  <g id="Сгруппировать_495" data-name="Сгруппировать 495" transform="translate(17.773 25.054)">
    <g id="Сгруппировать_494" data-name="Сгруппировать 494">
      <path id="Контур_6781" data-name="Контур 6781" d="M316.975,449h-.033a.562.562,0,0,0-.005,1.124h.038a.562.562,0,0,0,0-1.124Z" transform="translate(-316.378 -448.999)" fill="#00821f"/>
    </g>
  </g>
  <g id="Сгруппировать_497" data-name="Сгруппировать 497" transform="translate(0 0)">
    <g id="Сгруппировать_496" data-name="Сгруппировать 496">
      <path id="Контур_6782" data-name="Контур 6782" d="M21.763,12.672a2.579,2.579,0,0,0-.25-.459h1.462a2.584,2.584,0,0,0,0-5.168h-4.5A2.582,2.582,0,0,0,16.347,3H2.584a2.584,2.584,0,1,0,0,5.168h4.5a2.577,2.577,0,0,0,0,2.921H5.618A2.583,2.583,0,0,0,4.012,15.7a2.579,2.579,0,0,0,0,4.045,2.579,2.579,0,0,0,0,4.045,2.583,2.583,0,0,0,1.606,4.606h6.62a9.548,9.548,0,1,0,9.525-15.72Zm1.213-4.5a1.461,1.461,0,0,1,0,2.921H9.213a1.461,1.461,0,0,1,0-2.921ZM2.584,7.045a1.461,1.461,0,0,1,0-2.921H16.347a1.461,1.461,0,0,1,0,2.921Zm3.034,5.168H19.381a1.46,1.46,0,0,1,.637.147c-.266-.022-.534-.034-.806-.034a9.52,9.52,0,0,0-6.758,2.809H5.618a1.461,1.461,0,1,1,0-2.921Zm0,4.045h5.877a9.523,9.523,0,0,0-1.444,2.921H5.618a1.461,1.461,0,1,1,0-2.921Zm0,4.045H9.793a9.558,9.558,0,0,0-.035,2.921H5.618a1.461,1.461,0,0,1,0-2.921Zm0,6.966a1.461,1.461,0,1,1,0-2.921h4.37a9.512,9.512,0,0,0,1.348,2.921ZM19.212,30.3a8.426,8.426,0,1,1,8.426-8.426A8.436,8.436,0,0,1,19.212,30.3Z" transform="translate(0 -3)" fill="#00821f"/>
    </g>
  </g>
</svg>
