<svg width="88" height="47" viewBox="0 0 88 47" fill="none" xmlns="http://www.w3.org/2000/svg">
<path d="M23.957 18.2894L9.45091 39.6901H21.0448C21.9239 39.6901 22.6738 39.9984 23.2976 40.6183C23.9214 41.2382 24.2317 41.9834 24.2317 42.857V43.403C24.2317 44.2766 23.9214 45.0218 23.2976 45.6417C22.6738 46.2616 21.9239 46.5699 21.0448 46.5699H3.18693C2.30778 46.5699 1.55791 46.2616 0.934101 45.6417C0.31029 45.0218 0 44.2766 0 43.403V42.7478C0 42.1664 0.145448 41.6204 0.439577 41.1097L14.8907 19.8183H3.79135C2.9122 19.8183 2.16233 19.51 1.53852 18.8901C0.914708 18.2702 0.604419 17.525 0.604419 16.6514V16.1054C0.604419 15.2317 0.914708 14.4866 1.53852 13.8667C2.16233 13.2468 2.9122 12.9385 3.79135 12.9385H21.2096C22.0888 12.9385 22.8386 13.2468 23.4624 13.8667C24.0862 14.4866 24.3965 15.2317 24.3965 16.1054V16.6514C24.3965 17.2327 24.2511 17.7788 23.957 18.2894Z" fill="#191919"/>
<path d="M86.1317 31.2298C87.3761 32.9417 87.9999 34.7307 87.9999 37.2424C87.9999 38.8451 87.8448 39.5228 87.3309 40.7594C86.8557 42.0698 86.0671 43.2711 84.9681 44.3631C82.8801 46.3641 80.9344 47.0001 77.4533 47.0001C75.4752 47.0001 73.7169 46.7078 72.1784 46.1264C70.5655 45.5451 69.1757 44.8353 68.0024 43.997C67.2687 43.4863 66.8194 42.8214 66.6546 42.0024C66.4897 41.1834 66.6449 40.4093 67.1232 39.6834L67.4529 39.192C67.8925 38.5015 68.5713 38.0261 69.486 37.7724C70.3651 37.5893 71.1699 37.7531 71.9036 38.2638C72.2689 38.4822 72.6729 38.7102 73.1125 38.9479C73.5521 39.1856 74.011 39.4586 74.5411 39.632C75.4914 39.9372 76.1087 40.0399 77.4662 40.1781C77.4727 40.1781 78.1353 40.2712 78.869 40.0817C78.8755 40.0817 79.4864 39.9596 80.0778 39.4522C80.0811 39.4522 80.5821 39.0411 80.8568 38.4083C80.8665 38.3858 80.957 38.1867 81.0281 37.888C81.0313 37.8719 81.0863 37.6889 81.1057 37.2777C81.1057 37.2649 81.1315 36.9276 80.9829 36.3559C80.9764 36.3335 80.8148 35.8003 80.4883 35.3988C80.3073 35.1772 80.0164 34.8688 79.5575 34.5605C79.0985 34.2522 78.4391 33.9085 77.56 33.5809H77.505L75.3071 32.7619C74.024 32.2544 72.8798 31.7052 71.8713 31.1238C70.8629 30.5425 69.9934 29.868 69.2597 29.1035C67.5757 27.3916 66.7321 25.3103 66.7321 22.2173C66.7321 20.5439 67.0263 19.7121 67.6113 18.4369C68.1252 17.1618 68.9106 16.0698 69.974 15.1608C71.0374 14.2872 72.2075 13.632 73.4906 13.1952C74.6251 12.8322 75.8889 12.6492 77.282 12.6492C79.0403 12.6492 81.4774 13.2948 83.0159 13.8408C84.4445 14.3515 85.5984 14.9135 86.4776 15.5334C87.2113 15.9702 87.6767 16.5901 87.8771 17.3899C88.0775 18.1896 87.9773 18.9541 87.5765 19.6832L87.3018 20.1746C86.8622 20.939 86.2319 21.5782 85.3237 21.758C84.4187 21.9379 83.727 21.8094 82.8511 21.3758C82.4858 21.1574 82.1109 20.9647 81.723 20.8009C81.3384 20.6371 80.9441 20.4636 80.54 20.2806C79.9162 20.0268 78.3034 19.5258 77.2788 19.5258C75.9956 19.5258 75.1391 19.8148 74.5185 20.3994C74.4441 20.4733 74.2276 20.682 74.0304 21.0257C73.8106 21.4015 73.6813 21.7195 73.6329 22.2848C73.6264 22.3522 73.6264 22.7473 73.662 23.0171C73.6975 23.2901 73.7686 23.5374 73.843 23.6819C74.011 24.0577 74.15 24.2793 74.3698 24.4592C74.6639 24.7515 75.0098 25.0245 75.4138 25.2782C75.7079 25.426 76.0182 25.5705 76.3479 25.715C76.6776 25.8596 77.0428 26.0073 77.4468 26.1518H77.5018L80.1942 27.1893C82.9803 28.246 84.9584 29.5918 86.1317 31.2298Z" fill="#191919"/>
<path d="M54.4635 40.6181C53.8397 39.9982 53.0899 39.6899 52.2107 39.6899H41.7708V34.6023H48.164C49.0432 34.6023 49.7833 34.2939 50.3878 33.674C50.9922 33.0541 51.2928 32.309 51.2928 31.4354V30.8893C51.2928 30.0157 50.9922 29.2706 50.3878 28.6507C49.7833 28.0308 49.0399 27.7224 48.164 27.7224H41.7708V25.2782V22.8468C41.7708 21.9732 41.4605 21.2281 40.8367 20.6082C40.2128 19.9883 39.463 19.6799 38.5838 19.6799H38.0343C37.1552 19.6799 36.4053 19.9883 35.7815 20.6082C35.1577 21.2281 34.8474 21.9732 34.8474 22.8468V30.2855V43.4028C34.8474 44.2764 35.1577 45.0215 35.7815 45.6414C36.4053 46.2613 37.1552 46.5697 38.0343 46.5697H52.2107C53.0899 46.5697 53.8397 46.2613 54.4635 45.6414C55.0874 45.0215 55.3976 44.2764 55.3976 43.4028V42.8567C55.3976 41.9831 55.0841 41.238 54.4635 40.6181Z" fill="#191919"/>
<path fill-rule="evenodd" clip-rule="evenodd" d="M54.6123 4.00599C54.6123 4.00599 50.3587 -1.406 44.3469 0.350887C44.3469 0.350887 43.1704 0.636744 44.3469 1.52964C45.5234 2.42254 48.3612 3.6559 47.8635 5.31643C47.369 6.97375 50.8274 3.34756 54.6123 4.00599Z" fill="#BF58F3"/>
<path fill-rule="evenodd" clip-rule="evenodd" d="M43.9072 1.08388C43.9848 1.21236 44.1238 1.3601 44.3468 1.53033C45.5233 2.42323 48.3612 3.65658 47.8634 5.31712C47.4045 6.84918 50.3166 3.8782 53.7428 3.92959C52.3271 2.51959 48.749 -0.351822 44.1367 0.997161C44.1399 0.99395 44.0268 1.01964 43.9072 1.08388Z" fill="#AA40E1"/>
<path fill-rule="evenodd" clip-rule="evenodd" d="M54.0789 14.1265C54.0789 14.1265 51.5643 18.4754 48.8008 18.7741C46.0373 19.076 50.9954 14.9776 50.1745 13.1662C49.3535 11.3579 54.0789 14.1265 54.0789 14.1265Z" fill="#B170E0"/>
<path fill-rule="evenodd" clip-rule="evenodd" d="M63.546 16.2302C63.546 16.2302 64.8453 18.9635 63.6656 20.1519C62.4826 21.3403 60.052 19.1659 58.3907 17.3158C56.7325 15.4658 38.3608 11.1009 28.1212 26.6559C28.1212 26.6559 27.1063 27.9664 28.939 29.4888C30.7684 31.0112 32.9501 32.4309 32.2261 35.5849C31.5021 38.739 30.6585 34.3162 27.9402 33.2595C27.9402 33.2595 26.3597 32.736 26.1044 30.5262C26.1044 30.5262 25.529 31.917 24.0034 32.0968C22.4779 32.2767 20.2994 32.0711 19.6077 34.4961C18.916 36.9179 16.5468 31.7403 19.4655 29.7104C22.3809 27.6805 25.7715 29.097 26.6183 24.9858C28.2699 16.9786 33.1117 7.51644 45.032 4.38166C49.9837 3.08085 54.8029 2.51235 59.6027 4.63218C63.4652 6.33126 67.2921 9.72941 63.546 16.2302Z" fill="#D294F7"/>
<path fill-rule="evenodd" clip-rule="evenodd" d="M63.546 16.2303C63.546 16.2303 64.8453 18.9636 63.6656 20.152C63.2228 20.5952 62.6054 20.5695 61.9202 20.2676C61.9202 20.2676 59.7255 18.6296 59.4476 16.5226C59.2763 15.2218 56.7358 12.9124 52.9897 12.0195C52.8992 12.0195 51.4221 12.0549 49.8997 13.6608C48.3289 15.3181 45.8013 17.6949 43.6454 17.1746C41.7999 16.7281 45.3488 14.4927 45.0611 12.5174L44.9351 12.5623C34.4208 16.6286 29.5499 23.6786 28.1212 26.6528C28.1212 26.6528 27.1063 27.9632 28.939 29.4857C30.7684 31.0081 32.9501 32.4277 32.2261 35.5818C31.5021 38.7358 30.6585 34.3131 27.9402 33.2564C27.9402 33.2564 26.3597 32.7329 26.1044 30.5231C26.1044 30.5231 25.529 31.9138 24.0034 32.0937C22.4779 32.2736 20.2994 32.068 19.6077 34.493C18.916 36.9147 16.5468 31.7372 19.4655 29.7073C22.3809 27.6774 25.4385 29.0103 26.6183 24.9826C27.5298 21.8671 29.7794 8.41261 45.032 4.37851C49.9934 3.06807 54.8029 2.5092 59.6027 4.62904C63.4652 6.33132 67.2921 9.72948 63.546 16.2303Z" fill="#AA40E1"/>
<path fill-rule="evenodd" clip-rule="evenodd" d="M47.8894 4.63871C47.049 4.86032 46.0308 5.12691 45.1582 5.37101C32.084 9.05823 28.9261 19.4518 26.9836 26.0972C25.8038 30.1249 22.7462 28.7919 19.8308 30.8218C18.4959 31.7501 18.2696 33.3367 18.4797 34.554C17.8818 33.4395 17.6523 30.9632 19.4655 29.7009C22.3842 27.671 25.4418 29.0039 26.6183 24.9762C27.5298 21.8607 29.6243 8.49937 45.1194 4.35927C45.8886 4.15371 45.3004 4.26934 47.3625 3.81968C49.4796 3.2287 51.5837 3.00708 53.7493 3.22548C55.7339 3.42462 57.2174 3.59485 59.6028 4.62265C62.0011 5.65687 64.3703 7.37843 64.9488 10.0635C64.0373 8.01438 62.0075 6.64291 59.968 5.74359C57.4599 4.63549 54.8773 4.07021 52.311 4.07021C50.8242 4.07021 49.3471 4.25649 47.8894 4.63871Z" fill="#BF58F3"/>
</svg>
