<svg xmlns="http://www.w3.org/2000/svg" width="23.974" height="23.897" viewBox="0 0 23.974 23.897">
  <g id="ow4" transform="translate(0 -0.82)">
    <g id="Сгруппировать_19" data-name="Сгруппировать 19" transform="translate(16.881 17.673)">
      <g id="Сгруппировать_18" data-name="Сгруппировать 18">
        <path id="Контур_39" data-name="Контур 39" d="M364.849,360.776a.352.352,0,0,0-.383.076L360.62,364.7a.352.352,0,0,0,.249.6h3.845a.352.352,0,0,0,.352-.352V361.1A.352.352,0,0,0,364.849,360.776Zm-3.131,3.819,2.644-2.644v2.644Z" transform="translate(-360.517 -360.749)"/>
      </g>
    </g>
    <g id="Сгруппировать_21" data-name="Сгруппировать 21" transform="translate(0 0.82)">
      <g id="Сгруппировать_20" data-name="Сгруппировать 20">
        <path id="Контур_40" data-name="Контур 40" d="M23.757,12.06a.352.352,0,0,0-.383.076L22.319,13.19V6.025a.352.352,0,0,0-.352-.352h-2.7l.981-.981h0l.946-.946a1.073,1.073,0,0,0,0-1.517L20.1,1.134a1.073,1.073,0,0,0-1.517,0l-.946.946L16.491,3.224,14.042,5.673H3.119V2.191a.352.352,0,0,0-.352-.352A2.771,2.771,0,0,0,0,4.607V19.553a.353.353,0,0,0,.008.076,2.665,2.665,0,0,0,2.657,2.463H13.418l-2.025,2.025a.352.352,0,0,0,.249.6h11.98a.352.352,0,0,0,.352-.352V12.385A.352.352,0,0,0,23.757,12.06ZM19.078,1.632a.37.37,0,0,1,.522,0l1.094,1.094a.37.37,0,0,1,0,.522l-.7.7L18.381,2.329ZM17.883,2.827,19.5,4.442l-.646.646L17.237,3.472ZM23.27,16.339h-.649a.352.352,0,0,0,0,.7h.649V18.1h-.649a.352.352,0,0,0,0,.7h.649v1.06h-.649a.352.352,0,0,0,0,.7h.649v1.06h-.649a.352.352,0,0,0,0,.7h.649v1.678H12.491l3.554-3.554a.352.352,0,0,0-.5-.5l-1.426,1.426H2.666a1.951,1.951,0,0,1-1.96-1.9q0-.1.016-.2h0q.006-.047.014-.093l0-.011q.007-.041.016-.082l.005-.023q.008-.035.017-.069l.01-.037c.005-.018.01-.036.016-.053l.018-.053.013-.037c.009-.023.018-.046.027-.068l.008-.02c.012-.028.025-.056.038-.083l0,0a2.071,2.071,0,0,1,1.44-1.126h.005l.088-.016.015,0,.081-.01.023,0,.079-.006.025,0,.1,0a.352.352,0,0,0,.352-.352V14.586a.352.352,0,1,0-.7,0v2.222a2.748,2.748,0,0,0-1.581.765c-.046.045-.089.091-.131.138V4.607A2.067,2.067,0,0,1,2.416,2.573v10.6h0a.352.352,0,1,0,.7,0h0v-6.8H13.338L11.393,8.322a.352.352,0,0,0,.5.5l2.546-2.546h0l2.3-2.3,1.616,1.616-.19.19h0l-7.1,7.1L9.455,11.255l1.4-1.4a.352.352,0,0,0-.5-.5L8.708,11.006a.354.354,0,0,0-.025.028l-.007.01-.014.02-.007.012-.011.02-.006.013-.009.021,0,.007L7.94,13.08,7.472,14.4a.356.356,0,0,0-.014.054H6.288a.352.352,0,0,0,0,.7h9.745a.352.352,0,0,0,0-.7H9.041l2.146-.758.005,0,.025-.01.01,0,.025-.014.008,0,.025-.018.006,0,.028-.025L18.56,6.376h3.055v7.517l-5.033,5.033a.352.352,0,0,0,0,.5l.027.024a.352.352,0,0,0,.444,0l.027-.024h0l6.19-6.19ZM10.427,13.223l-1.008.356-.672-.672L9.1,11.9Z" transform="translate(0 -0.82)"/>
      </g>
    </g>
  </g>
</svg>
