<svg id="av4" xmlns="http://www.w3.org/2000/svg" width="28.425" height="28.425" viewBox="0 0 28.425 28.425">
  <g id="XMLID_971_">
    <g id="XMLID_977_">
      <path id="XMLID_1030_" d="M25.392,5.437h.878a.555.555,0,0,0,0-1.11H24.162a.555.555,0,0,0-.555.555V6.991a.555.555,0,0,0,1.11,0V6.38a13.1,13.1,0,1,1-10.5-5.271,13.3,13.3,0,0,1,1.6.1A.555.555,0,1,0,15.945.1,14.414,14.414,0,0,0,14.213,0,14.213,14.213,0,0,0,4.163,24.262,14.212,14.212,0,0,0,25.392,5.437Z" fill="#00645d"/>
      <path id="XMLID_1029_" d="M67.581,69.942a.555.555,0,0,0-.766.172A10.594,10.594,0,1,0,70.131,66.8a.555.555,0,1,0,.592.939,9.488,9.488,0,1,1-1.656,14.741,9.548,9.548,0,0,1-1.314-11.777A.555.555,0,0,0,67.581,69.942Z" transform="translate(-61.562 -61.563)" fill="#00645d"/>
      <path id="XMLID_1028_" d="M376.724,247.44h.684a.555.555,0,1,0,0-1.11h-.684a.555.555,0,1,0,0,1.11Z" transform="translate(-355.299 -232.663)" fill="#00645d"/>
      <path id="XMLID_1004_" d="M103.835,246.561a.555.555,0,0,0,.555.555h.684a.555.555,0,1,0,0-1.11h-.684A.555.555,0,0,0,103.835,246.561Z" transform="translate(-98.074 -232.357)" fill="#00645d"/>
      <path id="XMLID_1001_" d="M247.44,105.074v-.684a.555.555,0,1,0-1.11,0v.684a.555.555,0,1,0,1.11,0Z" transform="translate(-232.663 -98.074)" fill="#00645d"/>
      <path id="XMLID_1415_" d="M246.006,376.724v.684a.555.555,0,1,0,1.11,0v-.684a.555.555,0,0,0-1.11,0Z" transform="translate(-232.357 -355.299)" fill="#00645d"/>
      <path id="XMLID_996_" d="M189.919,156.557a.555.555,0,1,0-.785.785l1.88,1.88a1.911,1.911,0,1,0,3.371,0l3.794-3.794a.555.555,0,0,0-.785-.785l-3.794,3.794a1.907,1.907,0,0,0-1.8,0Zm3.583,3.566a.8.8,0,1,1-.8-.8A.8.8,0,0,1,193.5,160.123Z" transform="translate(-178.488 -145.91)" fill="#00645d"/>
      <path id="XMLID_980_" d="M119.125,119.125a.555.555,0,1,0-.392.163A.557.557,0,0,0,119.125,119.125Z" transform="translate(-111.621 -111.621)" fill="#00645d"/>
      <path id="XMLID_979_" d="M315.993,10.988a.555.555,0,1,0-.392-.163A.557.557,0,0,0,315.993,10.988Z" transform="translate(-297.937 -9.33)" fill="#00645d"/>
    </g>
  </g>
</svg>
