<svg xmlns="http://www.w3.org/2000/svg" width="18.897" height="28" viewBox="0 0 18.897 28">
  <path id="av5" d="M96.93,24.777v2.756a.467.467,0,0,1-.933,0V24.777a3.881,3.881,0,0,0-3.883-3.883A2.865,2.865,0,0,1,89.65,19.51a.467.467,0,0,1,.8-.485,1.938,1.938,0,0,0,1.668.936,4.813,4.813,0,0,1,4.816,4.816ZM88.788,20.1a.467.467,0,0,1-.357.555,4.466,4.466,0,0,1-3.471-.679,2.83,2.83,0,0,1-2.111.918,3.881,3.881,0,0,0-3.883,3.883v2.756a.467.467,0,1,1-.933,0V24.777a4.813,4.813,0,0,1,4.816-4.816,1.945,1.945,0,0,0,1.95-1.945v-.123a6.251,6.251,0,0,1-3.553-5.4,1.9,1.9,0,0,1-1.463-1.844V8.227A8.548,8.548,0,0,1,82.1,1.993C84.765-.58,89.047-.417,92.2,1.1a.468.468,0,0,1,.1.777,6.3,6.3,0,0,1,3.854,2.773.515.515,0,0,1,.107.367.472.472,0,0,1-.134.3,3.047,3.047,0,0,0-.882,2.152v3.183a.467.467,0,1,1-.933,0V7.463a3.972,3.972,0,0,1,.906-2.536,5.39,5.39,0,0,0-3.869-2.271l-.82-.088a.467.467,0,0,1-.128-.9l.373-.154c-4.858-1.693-10.052.188-10.052,6.7v2.424a.963.963,0,0,0,.525.854V8.475a3.27,3.27,0,0,1,3.266-3.266h5.949a3.27,3.27,0,0,1,3.266,3.266v3.821a6.25,6.25,0,0,1-8,5.952,2.853,2.853,0,0,1-.244.953,3.533,3.533,0,0,0,2.755.543.467.467,0,0,1,.555.357Zm-1.306-2.533a5.314,5.314,0,0,0,5.308-5.308V8.474a2.336,2.336,0,0,0-2.333-2.333H84.507a2.336,2.336,0,0,0-2.333,2.333v3.785A5.314,5.314,0,0,0,87.482,17.567Zm4.724,8.042h-1.4a.467.467,0,1,0,0,.933h1.4a.467.467,0,0,0,0-.933Z" transform="translate(-78.033)" fill="#be6d00"/>
</svg>
