<svg id="av6" xmlns="http://www.w3.org/2000/svg" width="27.011" height="23.029" viewBox="0 0 27.011 23.029">
  <path id="Контур_6783" data-name="Контур 6783" d="M72.479,73.057a.526.526,0,0,0,.373-.155l0,0a.528.528,0,0,0-.738-.754l-.011.011a.528.528,0,0,0,.374.9Zm0,0" transform="translate(-68.155 -68.198)" fill="#bc000f"/>
  <path id="Контур_6784" data-name="Контур 6784" d="M26.9,11.753a13.585,13.585,0,0,0-3.837-7.794A13.518,13.518,0,0,0,5.7,2.484a.528.528,0,0,0,.611.861q.255-.181.518-.348L8.136,5.27A9.872,9.872,0,0,0,5.264,8.146L2.991,6.834a12.349,12.349,0,0,1,.771-1.083.528.528,0,0,0-.826-.658A13.521,13.521,0,0,0,1.807,20.263,2.358,2.358,0,1,0,5.9,17.912,8.785,8.785,0,0,1,19.715,7.3,8.792,8.792,0,0,1,22.15,15.11L16.7,13.048a3.223,3.223,0,1,0-.66,2.467l5.75.94a8.885,8.885,0,0,1-.675,1.457A2.358,2.358,0,0,0,25.2,20.264a13.57,13.57,0,0,0,1.694-8.51ZM4.982,18.438a1.3,1.3,0,1,1-2.26,1.3,12.339,12.339,0,0,1-1.66-5.694H3.68a9.9,9.9,0,0,0,1.3,4.4ZM3.748,12.227c-.033.252-.056.506-.069.759H1.064q.024-.547.1-1.1a12.51,12.51,0,0,1,1.3-4.142L4.736,9.06a9.808,9.808,0,0,0-.988,3.167Zm8.222,2.824a2.172,2.172,0,1,1,3.5-2.468l-1.505-.569a1.405,1.405,0,0,0-1.151.075,1.617,1.617,0,0,0-.62,2.315,1.406,1.406,0,0,0,.959.64l1.587.259a2.175,2.175,0,0,1-2.768-.252Zm3.914-.63h0L13.322,14a.365.365,0,0,1-.243-.171.561.561,0,0,1,.215-.8.408.408,0,0,1,.183-.047A.318.318,0,0,1,13.59,13l2.418.915.015.006,2.433.92ZM14.033,3.692V1.068a12.373,12.373,0,0,1,5.241,1.4L17.962,4.74a9.769,9.769,0,0,0-3.929-1.048Zm-6.3-1.225a12.361,12.361,0,0,1,5.241-1.4V3.692A9.769,9.769,0,0,0,9.049,4.74Zm11.138,2.8L20.188,3a12.591,12.591,0,0,1,3.835,3.837L21.747,8.147A9.873,9.873,0,0,0,18.875,5.27Zm3.4,3.791,2.276-1.314a12.464,12.464,0,0,1,1.3,4.145q.072.549.1,1.1H23.333q-.02-.38-.069-.759a9.8,9.8,0,0,0-.988-3.167Zm2.014,10.677a1.3,1.3,0,0,1-2.26-1.3,9.78,9.78,0,0,0,.812-1.812l.643.105a.528.528,0,0,0,.272-1.014l-.611-.231a9.964,9.964,0,0,0,.187-1.445h2.617a12.337,12.337,0,0,1-1.66,5.7Zm0,0" transform="translate(0 -0.001)" fill="#bc000f"/>
  <path id="Контур_6785" data-name="Контур 6785" d="M192.851,354.5H186.52a.528.528,0,0,0-.528.528v1.688a.528.528,0,0,0,.528.528h6.332a.528.528,0,0,0,.528-.528v-1.688A.528.528,0,0,0,192.851,354.5Zm-.528,1.688h-5.276v-.633h5.276Zm0,0" transform="translate(-176.18 -335.794)" fill="#bc000f"/>
  <path id="Контур_6786" data-name="Контур 6786" d="M98.7,246.145a.528.528,0,1,0,0,1.055h.013a.528.528,0,1,0,0-1.055Zm0,0" transform="translate(-92.997 -233.159)" fill="#bc000f"/>
  <path id="Контур_6787" data-name="Контур 6787" d="M173.092,118.4l-.006-.011a.528.528,0,0,0-.914.528l.006.011a.528.528,0,1,0,.914-.528Zm0,0" transform="translate(-163.022 -111.897)" fill="#bc000f"/>
  <path id="Контур_6788" data-name="Контур 6788" d="M320.334,119.212a.527.527,0,0,0,.457-.264l.006-.011a.528.528,0,1,0-.914-.528l-.006.011a.528.528,0,0,0,.456.792Zm0,0" transform="translate(-302.935 -111.913)" fill="#bc000f"/>
  <path id="Контур_6789" data-name="Контур 6789" d="M394.126,247.231a.528.528,0,0,0,0-1.055h-.012a.528.528,0,1,0,0,1.055Zm0,0" transform="translate(-372.821 -233.189)" fill="#bc000f"/>
  <path id="Контур_6790" data-name="Контур 6790" d="M211.536,416.5h-.012a.528.528,0,1,0,0,1.055h.012a.528.528,0,1,0,0-1.055Zm0,0" transform="translate(-199.864 -394.531)" fill="#bc000f"/>
  <path id="Контур_6791" data-name="Контур 6791" d="M242.658,416.5h-2.165a.528.528,0,0,0,0,1.055h2.165a.528.528,0,0,0,0-1.055Zm0,0" transform="translate(-227.305 -394.531)" fill="#bc000f"/>
</svg>
