<svg xmlns="http://www.w3.org/2000/svg" width="18.799" height="18.799" viewBox="0 0 18.799 18.799">
  <path id="direct" d="M18,.032.418,5.778A.607.607,0,0,0,.3,6.879l6.646,3.864a.606.606,0,0,0,.666-.037L9.482,9.319,8.094,11.187a.607.607,0,0,0-.037.666L11.921,18.5a.607.607,0,0,0,1.1-.116L18.768.8A.607.607,0,0,0,18,.032ZM12.289,16.72l-2.983-5.13,3.6-4.844a.606.606,0,0,0-.848-.848l-4.844,3.6L2.081,6.511,17.244,1.556ZM6.367,13.291,2.341,17.317a.606.606,0,0,1-.858-.858L5.51,12.433a.606.606,0,1,1,.858.858Zm-5.319.152a.606.606,0,0,1,0-.858L2.637,11a.606.606,0,0,1,.858.858L1.905,13.443a.606.606,0,0,1-.858,0ZM7.8,15.306a.606.606,0,0,1,0,.858L6.215,17.753a.606.606,0,1,1-.858-.858l1.589-1.589a.606.606,0,0,1,.858,0Z" transform="translate(0 -0.001)" fill="#a1000d"/>
</svg>
