<svg xmlns="http://www.w3.org/2000/svg" width="64" height="66.594" viewBox="0 0 64 66.594">
  <g id="form-project-icon" transform="translate(-11)">
    <circle id="Эллипс_363" data-name="Эллипс 363" cx="32" cy="32" r="32" transform="translate(11 2.594)" fill="#1a2b63"/>
    <path id="Контур_6908" data-name="Контур 6908" d="M207.74,340a4.807,4.807,0,0,1,4.055,2.214.13.13,0,0,0,.1.059h.01a.129.129,0,0,0,.1-.044,7.041,7.041,0,0,1,7.265-2.1l-2.321-5.95h-8.213l-2.347,6.015A4.8,4.8,0,0,1,207.74,340Z" transform="translate(-169.973 -290.714)" fill="#d9eafc"/>
    <g id="Сгруппировать_625" data-name="Сгруппировать 625" transform="translate(33.714 43.466)">
      <path id="Контур_6909" data-name="Контур 6909" d="M209.8,334.179h-1.071l-2.347,6.015a4.819,4.819,0,0,1,1.144-.187Z" transform="translate(-203.687 -334.179)" fill="#aec1ed"/>
      <path id="Контур_6910" data-name="Контур 6910" d="M187.189,383.164a.13.13,0,0,0,.129.111l.02,0a8.846,8.846,0,0,1,1.386-.111,8.736,8.736,0,0,1,5.974,2.353.13.13,0,0,0,.177,0,8.736,8.736,0,0,1,5.974-2.353,8.847,8.847,0,0,1,1.386.111l.02,0a.13.13,0,0,0,.129-.111,10.763,10.763,0,0,1,1.763-4.487,7.177,7.177,0,0,0-10.3.482,4.95,4.95,0,0,0-8.217-.165A10.758,10.758,0,0,1,187.189,383.164Z" transform="translate(-185.635 -371.196)" fill="#aec1ed"/>
    </g>
    <path id="Контур_6911" data-name="Контур 6911" d="M65.281,363.766a10.931,10.931,0,0,0-19.929-4.409,32.009,32.009,0,0,0,12.531,11.91A8.9,8.9,0,0,1,65.281,363.766Z" transform="translate(-29.884 -308.351)" fill="#445ea0"/>
    <path id="Контур_6912" data-name="Контур 6912" d="M55.562,355.8A11.507,11.507,0,0,1,62.9,358.43a10.928,10.928,0,0,0-17.549.927q.388.651.806,1.281A11.541,11.541,0,0,1,55.562,355.8Z" transform="translate(-29.884 -308.351)" fill="#293d7c"/>
    <path id="Контур_6913" data-name="Контур 6913" d="M324.235,354.454a10.933,10.933,0,0,0-10.811,9.312,8.9,8.9,0,0,1,7.4,7.5,32.011,32.011,0,0,0,12.531-11.91A10.919,10.919,0,0,0,324.235,354.454Z" transform="translate(-263.089 -308.351)" fill="#445ea0"/>
    <g id="Сгруппировать_626" data-name="Сгруппировать 626" transform="translate(27.999 46.103)">
      <path id="Контур_6914" data-name="Контур 6914" d="M324.9,354.474c-.219-.013-.439-.02-.661-.02a10.933,10.933,0,0,0-10.811,9.312,8.823,8.823,0,0,1,1.193.277A12.349,12.349,0,0,1,324.9,354.474Z" transform="translate(-291.087 -354.454)" fill="#293d7c"/>
      <path id="Контур_6915" data-name="Контур 6915" d="M162.623,425.177a8.864,8.864,0,0,0-6.063,2.388,8.9,8.9,0,0,0-14.868,5.229,31.9,31.9,0,0,0,29.735,0A8.9,8.9,0,0,0,162.623,425.177Z" transform="translate(-141.693 -415.978)" fill="#293d7c"/>
    </g>
    <path id="Контур_6916" data-name="Контур 6916" d="M152.357,426.283a9.248,9.248,0,0,1,3.47.671,8.893,8.893,0,0,0-14.135,5.839q.785.415,1.6.786A9.287,9.287,0,0,1,152.357,426.283Z" transform="translate(-113.693 -369.875)" fill="#1a2b63"/>
    <g id="Сгруппировать_627" data-name="Сгруппировать 627" transform="translate(39.413 43.466)">
      <path id="Контур_6917" data-name="Контур 6917" d="M265.376,334.179h-1.966l.251,1.985a.975.975,0,0,0,1.936-.245Z" transform="translate(-258.992 -334.179)" fill="#aec1ed"/>
      <path id="Контур_6918" data-name="Контур 6918" d="M229.97,334.178l-.516,4.082a.976.976,0,0,0,.846,1.09,1,1,0,0,0,.124.008.976.976,0,0,0,.967-.853l.547-4.326H229.97Z" transform="translate(-229.446 -334.178)" fill="#aec1ed"/>
    </g>
    <path id="Контур_6919" data-name="Контур 6919" d="M144.521,174.524q0-1.591.114-3.169c-3.129,1.762-5.285,5.688-5.285,10.233a13.106,13.106,0,0,0,1.726,6.62.576.576,0,0,0,.715.242,12.661,12.661,0,0,1,4.714-.931A42.447,42.447,0,0,1,144.521,174.524Z" transform="translate(-111.656 -149.067)" fill="#fe3745"/>
    <path id="Контур_6920" data-name="Контур 6920" d="M140.826,181.588a12.248,12.248,0,0,1,3.747-9.123c.017-.371.038-.741.064-1.11-3.129,1.762-5.285,5.688-5.285,10.233a13.106,13.106,0,0,0,1.726,6.62.576.576,0,0,0,.715.242c.245-.1.493-.189.743-.273A13.112,13.112,0,0,1,140.826,181.588Z" transform="translate(-111.657 -149.067)" fill="#b7092b"/>
    <g id="Сгруппировать_628" data-name="Сгруппировать 628" transform="translate(37.886 22.288)">
      <path id="Контур_6921" data-name="Контур 6921" d="M319.509,171.355q.112,1.575.114,3.169a42.445,42.445,0,0,1-1.984,13,12.66,12.66,0,0,1,4.714.931.575.575,0,0,0,.715-.242,13.1,13.1,0,0,0,1.726-6.62C324.795,177.043,322.639,173.117,319.509,171.355Z" transform="translate(-304.642 -171.355)" fill="#fe3745"/>
      <path id="Контур_6922" data-name="Контур 6922" d="M217.708,307.125v3a.652.652,0,0,0,.65.65h8.66a.652.652,0,0,0,.65-.65v-3Z" transform="translate(-217.708 -289.466)" fill="#fe3745"/>
    </g>
    <path id="Контур_6923" data-name="Контур 6923" d="M219.92,310.124v-3h-2.212v3a.652.652,0,0,0,.65.65h2.212A.652.652,0,0,1,219.92,310.124Z" transform="translate(-179.822 -267.178)" fill="#b7092b"/>
    <path id="Контур_6924" data-name="Контур 6924" d="M196.154,90.318h-15.83a43.459,43.459,0,0,0,.187,27.951.576.576,0,0,0,.541.378h14.375a.576.576,0,0,0,.541-.378,43.46,43.46,0,0,0,.187-27.951Z" transform="translate(-145.373 -78.571)" fill="#eef6ff"/>
    <path id="Контур_6925" data-name="Контур 6925" d="M182.355,118.269a43.46,43.46,0,0,1-.187-27.951h-1.843a43.459,43.459,0,0,0,.187,27.951.576.576,0,0,0,.541.378H182.9A.576.576,0,0,1,182.355,118.269Z" transform="translate(-145.374 -78.571)" fill="#d9eafc"/>
    <path id="Контур_6926" data-name="Контур 6926" d="M227.179,90.318v2.158a.652.652,0,0,0,.65.65h6.2a.652.652,0,0,0,.65-.65V90.318Z" transform="translate(-188.061 -78.571)" fill="#ea2a3d"/>
    <path id="Контур_6927" data-name="Контур 6927" d="M228.654,92.476V90.318h-1.475v2.158a.652.652,0,0,0,.65.65H229.3A.652.652,0,0,1,228.654,92.476Z" transform="translate(-188.061 -78.571)" fill="#b7092b"/>
    <path id="Контур_6928" data-name="Контур 6928" d="M202.758,0a.575.575,0,0,0-.362.128,24.8,24.8,0,0,0-7.077,10.321c-.183.468-.356.945-.521,1.428h15.921c-.165-.482-.338-.96-.521-1.428A24.8,24.8,0,0,0,203.12.128.574.574,0,0,0,202.758,0Z" transform="translate(-159.892 0)" fill="#fe3745"/>
    <path id="Контур_6929" data-name="Контур 6929" d="M203.68.6q-.277-.244-.559-.474a.576.576,0,0,0-.724,0,24.8,24.8,0,0,0-7.077,10.321c-.183.468-.356.945-.521,1.428h1.843c.165-.482.338-.96.521-1.428A25.4,25.4,0,0,1,203.68.6Z" transform="translate(-159.892)" fill="#b7092b"/>
    <circle id="Эллипс_364" data-name="Эллипс 364" cx="6.636" cy="6.636" r="6.636" transform="translate(36.23 16.897)" fill="#445ea0"/>
    <circle id="Эллипс_365" data-name="Эллипс 365" cx="4.257" cy="4.257" r="4.257" transform="translate(38.609 19.276)" fill="#69cdff"/>
    <path id="Контур_6930" data-name="Контур 6930" d="M224.83,152.458a4.258,4.258,0,0,0,3.477,4.185,4.257,4.257,0,1,1,0-8.369A4.258,4.258,0,0,0,224.83,152.458Z" transform="translate(-184.66 -128.925)" fill="#52bbef"/>
    <path id="Контур_6931" data-name="Контур 6931" d="M86.171,130.805a.369.369,0,0,1-.341-.228,4.444,4.444,0,0,0-3.015-3.015.369.369,0,0,1,0-.682,4.445,4.445,0,0,0,3.015-3.015.369.369,0,0,1,.682,0,4.445,4.445,0,0,0,3.015,3.015.369.369,0,0,1,0,.682,4.444,4.444,0,0,0-3.015,3.015.369.369,0,0,1-.341.228Z" transform="translate(-62.277 -107.558)" fill="#ffd00d"/>
    <path id="Контур_6932" data-name="Контур 6932" d="M86.568,149.925a4.444,4.444,0,0,0-3.015-3.015.368.368,0,0,1-.193-.184c-.168.079-.348.158-.545.24a.369.369,0,0,0,0,.682,4.444,4.444,0,0,1,3.015,3.015.369.369,0,0,0,.682,0c.082-.2.161-.377.239-.545A.369.369,0,0,1,86.568,149.925Z" transform="translate(-62.277 -127.643)" fill="#ffaf10"/>
    <path id="Контур_6933" data-name="Контур 6933" d="M390.4,159.273a.324.324,0,0,1-.3-.2,3.906,3.906,0,0,0-2.65-2.65.324.324,0,0,1,0-.6,3.907,3.907,0,0,0,2.65-2.65.324.324,0,0,1,.6,0,3.907,3.907,0,0,0,2.65,2.65.324.324,0,0,1,0,.6,3.906,3.906,0,0,0-2.65,2.65.324.324,0,0,1-.3.2Z" transform="translate(-327.316 -133.077)" fill="#fff"/>
    <path id="Контур_6934" data-name="Контур 6934" d="M390.751,176.078a3.906,3.906,0,0,0-2.65-2.65.323.323,0,0,1-.169-.162c-.148.069-.306.139-.479.211a.324.324,0,0,0,0,.6,3.905,3.905,0,0,1,2.65,2.65.324.324,0,0,0,.6,0c.072-.173.141-.331.211-.479A.324.324,0,0,1,390.751,176.078Z" transform="translate(-327.315 -150.731)" fill="#d9eafc"/>
    <path id="Контур_6935" data-name="Контур 6935" d="M360.924,46.98a.378.378,0,0,1-.349-.233,4.551,4.551,0,0,0-3.088-3.088.378.378,0,0,1,0-.7,4.552,4.552,0,0,0,3.088-3.088.378.378,0,0,1,.7,0,4.552,4.552,0,0,0,3.088,3.088.378.378,0,0,1,0,.7,4.552,4.552,0,0,0-3.088,3.088.378.378,0,0,1-.349.233Z" transform="translate(-301.218 -34.484)" fill="#ff9518"/>
    <path id="Контур_6936" data-name="Контур 6936" d="M361.329,66.563a4.551,4.551,0,0,0-3.088-3.088.378.378,0,0,1-.2-.188c-.172.081-.356.162-.558.245a.378.378,0,0,0,0,.7,4.551,4.551,0,0,1,3.088,3.088.378.378,0,0,0,.7,0c.084-.2.165-.386.245-.558A.377.377,0,0,1,361.329,66.563Z" transform="translate(-301.217 -55.055)" fill="#ef8318"/>
  </g>
</svg>
