<svg id="Icon_ionic-ios-images" data-name="Icon ionic-ios-images" xmlns="http://www.w3.org/2000/svg" width="72.817" height="72.789" viewBox="0 0 72.817 72.789">
  <path id="Контур_6755" data-name="Контур 6755" d="M27.729,14.224a.77.77,0,0,0-1.251-.114L11.544,33.968a.76.76,0,0,0,.52,1.251l26.179,2.275a.773.773,0,0,0,.731-1.154Z" transform="translate(9.696 12.95)" fill="#ecf4fc"/>
  <path id="Контур_6756" data-name="Контур 6756" d="M28.919,18.787a.77.77,0,0,0-1.251-.114l-4.03,4.079a.76.76,0,0,0-.081.878l4.128,8.044a.757.757,0,0,0,.6.374l7.3.634a.773.773,0,0,0,.731-1.154Z" transform="translate(25.552 18.933)" fill="#ecf4fc"/>
  <path id="Контур_6757" data-name="Контур 6757" d="M28.809,20.139a3.844,3.844,0,1,0-3.851-4.566A3.873,3.873,0,0,0,28.809,20.139Z" transform="translate(27.434 11.13)" fill="#ecf4fc"/>
  <path id="Контур_6758" data-name="Контур 6758" d="M71.022,18.063l-10.693-.926L59.338,6.249a4.39,4.39,0,0,0-4.794-3.981L6.264,6.623a4.408,4.408,0,0,0-4,4.778L6.622,59.583a4.39,4.39,0,0,0,4.794,3.981l2.551-.228-.244,2.714a4.394,4.394,0,0,0,4.014,4.761l48.312,4.209a4.408,4.408,0,0,0,4.778-4l4.225-48.2A4.428,4.428,0,0,0,71.022,18.063ZM11.286,45.917a1.119,1.119,0,0,1-1.2-.991l-2.925-32.5a1.094,1.094,0,0,1,.991-1.186L53.52,7.159a1.119,1.119,0,0,1,1.2.991l.78,8.58L22.726,13.855a4.408,4.408,0,0,0-4.778,4L15.527,45.526ZM70.144,23.881,67.3,56.382a1.106,1.106,0,0,1-1.186,1.008l-3.023-.26L20.727,53.44a1.106,1.106,0,0,1-1.008-1.186l.618-7.134,2.226-25.367a1.106,1.106,0,0,1,1.186-1.008l32.176,2.811,4.826.423,8.385.731A1.061,1.061,0,0,1,70.144,23.881Z" transform="translate(-2.25 -2.249)" fill="#ecf4fc"/>
</svg>
