<svg xmlns="http://www.w3.org/2000/svg" width="29.135" height="23.502" viewBox="0 0 29.135 23.502">
  <g id="landing-page" transform="translate(0 -49.5)">
    <path id="Контур_63" data-name="Контур 63" d="M24.205,72.148H2.7A1.851,1.851,0,0,1,.854,70.3V55.475H19.689a.427.427,0,0,0,0-.854H.854V52.2A1.851,1.851,0,0,1,2.7,50.354H4.6a.427.427,0,1,0,0-.854H2.7A2.706,2.706,0,0,0,0,52.2V70.3A2.706,2.706,0,0,0,2.7,73h21.5a.427.427,0,0,0,0-.854Z" fill="#006562"/>
    <path id="Контур_64" data-name="Контур 64" d="M128.578,49.5H108.736a.427.427,0,1,0,0,.854h19.842a1.851,1.851,0,0,1,1.849,1.849v2.418h-6.6a.427.427,0,0,0,0,.854h6.6V70.3a1.851,1.851,0,0,1-1.849,1.849h-.267a.427.427,0,1,0,0,.854h.267a2.706,2.706,0,0,0,2.7-2.7V52.2A2.706,2.706,0,0,0,128.578,49.5Z" transform="translate(-102.146)" fill="#006562"/>
    <path id="Контур_65" data-name="Контур 65" d="M30.75,80.53a1.28,1.28,0,1,0,1.28-1.28A1.282,1.282,0,0,0,30.75,80.53Zm1.707,0a.427.427,0,1,1-.427-.427A.427.427,0,0,1,32.457,80.53Z" transform="translate(-29 -28.057)" fill="#006562"/>
    <path id="Контур_66" data-name="Контур 66" d="M96.28,82.061A1.28,1.28,0,1,0,95,80.78,1.282,1.282,0,0,0,96.28,82.061Zm0-1.707a.427.427,0,1,1-.427.427A.427.427,0,0,1,96.28,80.354Z" transform="translate(-89.594 -28.293)" fill="#006562"/>
    <path id="Контур_67" data-name="Контур 67" d="M161.561,80.78a1.28,1.28,0,1,0-1.28,1.28A1.282,1.282,0,0,0,161.561,80.78Zm-1.707,0a.427.427,0,1,1,.427.427A.427.427,0,0,1,159.854,80.78Z" transform="translate(-149.952 -28.293)" fill="#006562"/>
    <path id="Контур_68" data-name="Контур 68" d="M237.4,82.061a1.28,1.28,0,1,0,0-2.561H225.28a1.28,1.28,0,0,0,0,2.561Zm-12.548-1.28a.427.427,0,0,1,.427-.427H237.4a.427.427,0,0,1,0,.854H225.28A.427.427,0,0,1,224.854,80.78Z" transform="translate(-211.253 -28.293)" fill="#006562"/>
    <path id="Контур_69" data-name="Контур 69" d="M313.373,206.9h-8.137a.427.427,0,1,0,0,.854h8.137a.427.427,0,1,0,0-.854Z" transform="translate(-287.464 -148.447)" fill="#006562"/>
    <path id="Контур_70" data-name="Контур 70" d="M313.373,246.9h-8.137a.427.427,0,1,0,0,.854h8.137a.427.427,0,1,0,0-.854Z" transform="translate(-287.464 -186.171)" fill="#006562"/>
    <path id="Контур_71" data-name="Контур 71" d="M313.8,287.331a.427.427,0,0,0-.427-.427h-8.137a.427.427,0,0,0,0,.854h8.137A.427.427,0,0,0,313.8,287.331Z" transform="translate(-287.464 -223.894)" fill="#006562"/>
    <path id="Контур_72" data-name="Контур 72" d="M144.52,351.444H153.4a2.02,2.02,0,1,0,0-4.04H144.52a2.02,2.02,0,1,0,0,4.04Zm0-3.187H153.4a1.167,1.167,0,1,1,0,2.333H144.52a1.167,1.167,0,1,1,0-2.333Z" transform="translate(-134.391 -280.952)" fill="#006562"/>
    <path id="Контур_73" data-name="Контур 73" d="M57.2,190.4h-6.26a2.136,2.136,0,0,0-2.134,2.134v3.016a2.136,2.136,0,0,0,2.134,2.134H57.2a2.136,2.136,0,0,0,2.134-2.134v-.117h0v-2.9A2.136,2.136,0,0,0,57.2,190.4Zm-6.267,6.43.753-1.157a.427.427,0,0,0-.716-.465l-.858,1.318a1.278,1.278,0,0,1-.453-.976v-3.016a1.282,1.282,0,0,1,1.28-1.28H57.2a1.282,1.282,0,0,1,1.28,1.28v1.728l-1.295-1.546a.427.427,0,0,0-.321-.153.421.421,0,0,0-.325.143l-1.45,1.631-1.4-2.2a.427.427,0,0,0-.358-.2h0a.427.427,0,0,0-.358.194l-.914,1.4a.427.427,0,1,0,.715.465l.552-.848,2.337,3.678H50.936Zm6.267,0h-.526l-1.108-1.744,1.283-1.443,1.63,1.948A1.282,1.282,0,0,1,57.2,196.834Z" transform="translate(-46.032 -132.886)" fill="#006562"/>
  </g>
</svg>
