<svg id="mobileapp" xmlns="http://www.w3.org/2000/svg" width="23.502" height="23.502" viewBox="0 0 23.502 23.502">
  <path id="Контур_51" data-name="Контур 51" d="M304,24h.783v.783H304Zm0,0" transform="translate(-289.116 -22.825)" fill="#00445a"/>
  <path id="Контур_52" data-name="Контур 52" d="M240,24h1.567v.783H240Zm0,0" transform="translate(-228.249 -22.825)" fill="#00445a"/>
  <path id="Контур_53" data-name="Контур 53" d="M180.309,96h-3.134A1.175,1.175,0,0,0,176,97.175v3.134a1.175,1.175,0,0,0,1.175,1.175h3.134a1.175,1.175,0,0,0,1.175-1.175V97.175A1.175,1.175,0,0,0,180.309,96Zm.392,4.309a.392.392,0,0,1-.392.392h-3.134a.392.392,0,0,1-.392-.392V97.175a.392.392,0,0,1,.392-.392h3.134a.392.392,0,0,1,.392.392Zm0,0" transform="translate(-167.383 -91.3)" fill="#00445a"/>
  <path id="Контур_54" data-name="Контур 54" d="M305.175,131.917h1.567a1.175,1.175,0,0,0,1.175-1.175v-1.567A1.175,1.175,0,0,0,306.742,128h-1.567A1.175,1.175,0,0,0,304,129.175v1.567A1.175,1.175,0,0,0,305.175,131.917Zm-.392-2.742a.392.392,0,0,1,.392-.392h1.567a.392.392,0,0,1,.392.392v1.567a.392.392,0,0,1-.392.392h-1.567a.392.392,0,0,1-.392-.392Zm0,0" transform="translate(-289.116 -121.733)" fill="#00445a"/>
  <path id="Контур_55" data-name="Контур 55" d="M208,128h.783v.783H208Zm0,0" transform="translate(-197.816 -121.733)" fill="#00445a"/>
  <path id="Контур_56" data-name="Контур 56" d="M240,128h.783v.783H240Zm0,0" transform="translate(-228.249 -121.733)" fill="#00445a"/>
  <path id="Контур_57" data-name="Контур 57" d="M208,160h.783v.783H208Zm0,0" transform="translate(-197.816 -152.166)" fill="#00445a"/>
  <path id="Контур_58" data-name="Контур 58" d="M240,160h.783v.783H240Zm0,0" transform="translate(-228.249 -152.166)" fill="#00445a"/>
  <path id="Контур_59" data-name="Контур 59" d="M336,160h.783v.783H336Zm0,0" transform="translate(-319.549 -152.166)" fill="#00445a"/>
  <path id="Контур_60" data-name="Контур 60" d="M23.11,14.1H21.935V12.143a.392.392,0,0,0-.392-.392H20.368V1.958A1.961,1.961,0,0,0,18.41,0h-9.4A1.961,1.961,0,0,0,7.051,1.958V14.1H5.875a.392.392,0,0,0-.392.392v1.175H4.7v-.392a.392.392,0,0,0-.392-.392H.392A.392.392,0,0,0,0,15.276V23.11a.392.392,0,0,0,.392.392H4.309A.392.392,0,0,0,4.7,23.11v-.392h2.75a1.95,1.95,0,0,0,1.558.783h9.4a1.962,1.962,0,0,0,1.919-1.567h1.214a.392.392,0,0,0,.392-.392V19.585h.392a.392.392,0,0,0,.392-.392V17.235h.392a.392.392,0,0,0,.392-.392v-2.35A.392.392,0,0,0,23.11,14.1Zm-1.958,0H19.193a.392.392,0,0,1-.392-.392v-.783a.392.392,0,0,1,.392-.392h1.958Zm-3.525,6.267H16.06a.392.392,0,0,1-.392-.392V18.41a.392.392,0,0,1,.392-.392h1.567a.392.392,0,0,1,.392.392v1.567A.392.392,0,0,1,17.626,20.368Zm.392-6.659v.783a.392.392,0,0,1-.392.392H16.06a.392.392,0,0,1-.392-.392V12.926a.392.392,0,0,1,.392-.392h1.567a.392.392,0,0,1,.392.392ZM16.451.783V1.958a.392.392,0,0,1-.392.392h-4.7a.392.392,0,0,1-.392-.392V.783ZM6.267,14.884h4.309a.392.392,0,0,1,.392.392v1.567a.392.392,0,0,1-.392.392H6.267Zm5.412,0a1.175,1.175,0,0,0-1.1-.783h-.392V12.926a.392.392,0,0,1,.392-.392h1.567a.392.392,0,0,1,.392.392v1.567a.392.392,0,0,1-.392.392ZM10.184,18.41a.392.392,0,0,1,.392-.392h1.567a.392.392,0,0,1,.392.392v1.567a.392.392,0,0,1-.392.392H10.576a.392.392,0,0,1-.392-.392ZM3.917,22.718H.783V15.668H3.917Zm3.134-.783H4.7V16.451h.783v1.175a.392.392,0,0,0,.392.392H7.051Zm11.359.783h-9.4a1.175,1.175,0,0,1-1.175-1.175V18.018H9.473a1.161,1.161,0,0,0-.072.392v1.567a1.175,1.175,0,0,0,1.175,1.175h1.567a1.175,1.175,0,0,0,1.175-1.175V18.41a1.175,1.175,0,0,0-1.175-1.175h-.464a1.161,1.161,0,0,0,.072-.392V15.668h.392a1.175,1.175,0,0,0,1.175-1.175V12.926a1.175,1.175,0,0,0-1.175-1.175H10.576A1.175,1.175,0,0,0,9.4,12.926V14.1H7.834V1.958A1.175,1.175,0,0,1,9.009.783h1.175V1.958a1.175,1.175,0,0,0,1.175,1.175h4.7a1.175,1.175,0,0,0,1.175-1.175V.783H18.41a1.175,1.175,0,0,1,1.175,1.175v9.792h-.392a1.168,1.168,0,0,0-.783.305,1.168,1.168,0,0,0-.783-.305H16.06a1.175,1.175,0,0,0-1.175,1.175v1.567a1.175,1.175,0,0,0,1.175,1.175h1.567a1.161,1.161,0,0,0,.392-.072v.464a1.168,1.168,0,0,0,.305.783,1.168,1.168,0,0,0-.26.478,1.166,1.166,0,0,0-.437-.086H16.06a1.175,1.175,0,0,0-1.175,1.175v1.567a1.175,1.175,0,0,0,1.175,1.175h1.567a1.166,1.166,0,0,0,.437-.086,1.175,1.175,0,0,0,1.13.87h.32a1.175,1.175,0,0,1-1.1.783Zm2.742-1.567H19.193a.392.392,0,0,1-.392-.392v-.783a.392.392,0,0,1,.392-.392h1.958Zm.783-2.35H19.193a.392.392,0,0,1-.392-.392v-.783a.392.392,0,0,1,.392-.392h2.742Zm.783-2.35H19.193a.392.392,0,0,1-.392-.392v-.783a.392.392,0,0,1,.392-.392h3.525Zm0,0" fill="#00445a"/>
  <path id="Контур_61" data-name="Контур 61" d="M336,272h.783v.783H336Zm0,0" transform="translate(-319.549 -258.682)" fill="#00445a"/>
  <path id="Контур_62" data-name="Контур 62" d="M224,384h.783v.783H224Zm0,0" transform="translate(-213.032 -365.199)" fill="#00445a"/>
</svg>
