<svg xmlns="http://www.w3.org/2000/svg" width="23.502" height="23.502" viewBox="0 0 23.502 23.502">
  <g id="ow11" transform="translate(0 0)">
    <path id="Контур_6900" data-name="Контур 6900" d="M21.574,8.262H15.118c.02-.226.032-.456.032-.688A7.577,7.577,0,0,0,3.79,1.012a.459.459,0,1,0,.459.795A6.657,6.657,0,1,1,7.575,14.231,6.582,6.582,0,0,1,3.4,12.759a.459.459,0,0,0-.423-.081L1.759,13l.477-1.049a.459.459,0,0,0-.047-.46,6.66,6.66,0,0,1-.378-7.247.459.459,0,1,0-.794-.46,7.58,7.58,0,0,0,.275,8.026L.524,13.495a.459.459,0,0,0,.534.634l1.952-.51a7.573,7.573,0,0,0,5.62,1.457v4.02a1.93,1.93,0,0,0,1.928,1.928h6.492l2.9,2.375a.459.459,0,0,0,.75-.355v-2.02h.872A1.93,1.93,0,0,0,23.5,19.095V10.19a1.93,1.93,0,0,0-1.928-1.928Zm1.01,10.833a1.011,1.011,0,0,1-1.01,1.01H20.243a.459.459,0,0,0-.459.459v1.51l-2.267-1.855c-.125-.114-.234-.114-.48-.114H10.557a1.011,1.011,0,0,1-1.01-1.01V14.888a7.6,7.6,0,0,0,5.43-5.708h6.6a1.011,1.011,0,0,1,1.01,1.01Zm0,0" transform="translate(0)" fill="#009b25"/>
    <path id="Контур_6901" data-name="Контур 6901" d="M292.544,254.6a.459.459,0,0,0-.2-.874h-.188l-1.48-3.374a.459.459,0,0,0-.841,0l-1.48,3.374h-.188a.459.459,0,0,0-.2.874l-.551,1.257a.459.459,0,1,0,.841.369l.694-1.581h2.6l.694,1.581a.459.459,0,1,0,.841-.369Zm-3.182-.874.9-2.047.9,2.047Zm0,0" transform="translate(-274.194 -238.603)" fill="#009b25"/>
    <path id="Контур_6902" data-name="Контур 6902" d="M45.861,46.316a.459.459,0,1,0-.325-.134A.463.463,0,0,0,45.861,46.316Zm0,0" transform="translate(-43.318 -43.315)" fill="#009b25"/>
    <path id="Контур_6903" data-name="Контур 6903" d="M100.371,91.843a.459.459,0,1,0,.441.805,5.257,5.257,0,0,0,2.272-2.464,5.258,5.258,0,0,0,2.272,2.464.459.459,0,0,0,.441-.805,4.341,4.341,0,0,1-2.205-3.159h2.038a.459.459,0,1,0,0-.918h-2.087V85.854a.459.459,0,1,0-.918,0v1.913h-1.658a.459.459,0,1,0,0,.918h1.609a4.341,4.341,0,0,1-2.205,3.159Zm0,0" transform="translate(-95.537 -81.475)" fill="#009b25"/>
  </g>
</svg>
