<svg xmlns="http://www.w3.org/2000/svg" width="21.86" height="23.291" viewBox="0 0 21.86 23.291">
  <g id="ow12" transform="translate(-15.731)">
    <path id="Контур_6904" data-name="Контур 6904" d="M35.033,0h-1a.341.341,0,0,0,0,.682h1a1.874,1.874,0,0,1,1.876,1.869v7.9a1.874,1.874,0,0,1-1.876,1.869H33.9a.341.341,0,0,0-.207.07l-2.084,1.594V12.658a.341.341,0,0,0-.341-.341H27.111a1.866,1.866,0,0,1-.955-.26V8.226a2.082,2.082,0,0,0-.92-1.726V2.551A1.874,1.874,0,0,1,27.111.682h4.782a.341.341,0,0,0,0-.682H27.111a2.558,2.558,0,0,0-2.558,2.551V6.2a2.092,2.092,0,0,0-.487-.058H17.82a2.089,2.089,0,0,0-2.089,2.084v.737a.341.341,0,0,0,.682,0V8.226a1.406,1.406,0,0,1,1.407-1.4h6.247a1.406,1.406,0,0,1,1.407,1.4v3.966a.341.341,0,0,0,0,.09v2.171c0,.043,0,.086-.006.128h-.7a1.583,1.583,0,0,0-1.556,1.3.342.342,0,0,0-.088.049L21.593,17.1V16.2a.341.341,0,0,0-.341-.341H17.82a1.406,1.406,0,0,1-1.407-1.4V11.01a.341.341,0,0,0-.682,0v3.443a2.089,2.089,0,0,0,2.089,2.084h3.09V17.8a.346.346,0,0,0,.55.27l1.721-1.329v3.839a1.582,1.582,0,0,0,1.582,1.578h2.094v.8a.346.346,0,0,0,.55.27l1.381-1.066H29.2a1.582,1.582,0,0,0,1.582-1.578v-.606a.341.341,0,0,0-.682,0v.606a.9.9,0,0,1-.9.9h-.524a.341.341,0,0,0-.209.071l-.923.713v-.443a.341.341,0,0,0-.341-.341H24.764a.9.9,0,0,1-.9-.9V16.16a.9.9,0,0,1,.9-.9H29.2a.9.9,0,0,1,.9.9v1.675a.341.341,0,0,0,.682,0V16.16A1.582,1.582,0,0,0,29.2,14.582H26.152c0-.043,0-1.766,0-1.766a2.554,2.554,0,0,0,.955.184h3.812v1.672a.346.346,0,0,0,.549.271L34.012,13h1.02a2.558,2.558,0,0,0,2.558-2.551v-7.9A2.558,2.558,0,0,0,35.033,0Z" transform="translate(0)" fill="#007881"/>
    <path id="Контур_6905" data-name="Контур 6905" d="M271.4,54.569a.711.711,0,0,0-.875.679,2,2,0,0,1-.5,1.327l-.94,1.064a.341.341,0,0,0-.286-.155H266.96a.341.341,0,0,0-.341.341v4.13a.341.341,0,0,0,.341.341H268.8a.341.341,0,0,0,.31-.2,2.384,2.384,0,0,0,1.24.35h3.244a.893.893,0,0,0,.881-.924c-.01-.219,0-3.159,0-3.224a.883.883,0,0,0-.881-.882l-1.687-.005.07-.165a2.664,2.664,0,0,0-.14-2.345.7.7,0,0,0-.435-.332Zm-2.944,7.045H267.3V58.167h1.153ZM273.59,58.1a.2.2,0,0,1,.2.2c0,.065,0,.241,0,.48-.005,1.319-.008,2.568,0,2.776a.2.2,0,0,1-.2.21h-3.244a1.7,1.7,0,0,1-1.066-.377l-.144-.116V58.608l1.4-1.58a2.687,2.687,0,0,0,.673-1.779.019.019,0,0,1,.035-.009,1.978,1.978,0,0,1,.1,1.741l-.269.638a.341.341,0,0,0,.313.474Z" transform="translate(-239.473 -52.048)" fill="#007881"/>
    <path id="Контур_6906" data-name="Контур 6906" d="M72.792,196.547a.341.341,0,0,0,0,.682H73.8l-.188,1.136a.341.341,0,1,0,.673.111l.206-1.248h.823l-.188,1.136a.341.341,0,1,0,.673.111L76,197.23h1.369a.341.341,0,1,0,0-.682H76.117l.138-.832h1.119a.341.341,0,1,0,0-.682H76.368l.188-1.136a.341.341,0,1,0-.673-.111l-.206,1.248h-.823l.188-1.136a.341.341,0,0,0-.673-.111l-.206,1.248H72.792a.341.341,0,1,0,0,.682h1.256l-.138.832Zm1.948-.832h.823l-.138.832H74.6Z" transform="translate(-54.139 -184.695)" fill="#007881"/>
    <path id="Контур_6907" data-name="Контур 6907" d="M221.844,368.718a1.148,1.148,0,0,0-1.01-.227,1.269,1.269,0,0,0-.947,1.281,1.675,1.675,0,0,0,.5,1.2,5.007,5.007,0,0,0,1.3.894.341.341,0,0,0,.32,0c1.081-.573,1.8-1.148,1.8-2.094a1.261,1.261,0,0,0-.98-1.274A1.144,1.144,0,0,0,221.844,368.718Zm1.282,1.054c0,.51-.338.887-1.278,1.4-.94-.517-1.278-.894-1.278-1.4a.584.584,0,0,1,.425-.618.513.513,0,0,1,.12-.014.471.471,0,0,1,.429.275.341.341,0,0,0,.612-.012.443.443,0,0,1,.523-.238A.577.577,0,0,1,223.126,369.772Z" transform="translate(-194.868 -351.693)" fill="#007881"/>
  </g>
</svg>
