<svg id="ow7" xmlns="http://www.w3.org/2000/svg" width="26.638" height="23.502" viewBox="0 0 26.638 23.502">
  <path id="Контур_74" data-name="Контур 74" d="M118.285,186.715a.438.438,0,0,1-.285-.105l-2.846-2.423a.44.44,0,0,1,0-.67L118,181.094a.44.44,0,1,1,.57.669l-2.452,2.088,2.452,2.088a.44.44,0,0,1-.285.775Zm0,0" transform="translate(-107.775 -169.618)" fill="#950202"/>
  <path id="Контур_75" data-name="Контур 75" d="M250.148,186.715a.44.44,0,0,1-.285-.775l2.452-2.088-2.452-2.088a.44.44,0,0,1,.57-.669l2.846,2.423a.44.44,0,0,1,0,.67l-2.846,2.423A.438.438,0,0,1,250.148,186.715Zm0,0" transform="translate(-234.02 -169.618)" fill="#950202"/>
  <path id="Контур_76" data-name="Контур 76" d="M189.394,162.325a.448.448,0,0,1-.091-.01.44.44,0,0,1-.34-.521l1.774-8.421a.44.44,0,0,1,.861.181l-1.774,8.421A.44.44,0,0,1,189.394,162.325Zm0,0" transform="translate(-177.083 -143.411)" fill="#950202"/>
  <path id="Контур_77" data-name="Контур 77" d="M23.685,23.5H2.953A2.956,2.956,0,0,1,0,20.549V2.953A2.956,2.956,0,0,1,2.953,0H23.685a2.956,2.956,0,0,1,2.953,2.953v17.6A2.956,2.956,0,0,1,23.685,23.5ZM2.953.88A2.076,2.076,0,0,0,.88,2.953v17.6a2.076,2.076,0,0,0,2.073,2.073H23.685a2.076,2.076,0,0,0,2.073-2.073V2.953A2.076,2.076,0,0,0,23.685.88Zm0,0" fill="#950202"/>
  <path id="Контур_78" data-name="Контур 78" d="M26.2,98.97H.44a.44.44,0,0,1,0-.88H26.2a.44.44,0,0,1,0,.88Zm0,0" transform="translate(0 -91.928)" fill="#950202"/>
  <path id="Контур_79" data-name="Контур 79" d="M98.841,37.073a1.392,1.392,0,1,1,1.392-1.392A1.394,1.394,0,0,1,98.841,37.073Zm0-1.9a.512.512,0,1,0,.512.512A.513.513,0,0,0,98.841,35.169Zm0,0" transform="translate(-91.327 -32.135)" fill="#950202"/>
  <path id="Контур_80" data-name="Контур 80" d="M30.779,36.858a1.392,1.392,0,1,1,1.392-1.392A1.393,1.393,0,0,1,30.779,36.858Zm0-1.9a.512.512,0,1,0,.512.512A.513.513,0,0,0,30.779,34.954Zm0,0" transform="translate(-27.541 -31.934)" fill="#950202"/>
  <path id="Контур_81" data-name="Контур 81" d="M166.907,37.287A1.392,1.392,0,1,1,168.3,35.9,1.393,1.393,0,0,1,166.907,37.287Zm0-1.9a.512.512,0,1,0,.512.512A.513.513,0,0,0,166.907,35.383Zm0,0" transform="translate(-155.117 -32.336)" fill="#950202"/>
</svg>
