<svg xmlns="http://www.w3.org/2000/svg" width="25.333" height="23.502" viewBox="0 0 25.333 23.502">
  <g id="ow8" transform="translate(0 -18.5)">
    <path id="Контур_82" data-name="Контур 82" d="M203.487,176.661h11.48a.374.374,0,1,0,0-.747h-11.48a.374.374,0,1,0,0,.747Z" transform="translate(-193.063 -149.626)" fill="#bb000f"/>
    <path id="Контур_83" data-name="Контур 83" d="M203.487,231.672h11.48a.374.374,0,1,0,0-.747h-11.48a.374.374,0,1,0,0,.747Z" transform="translate(-193.063 -201.915)" fill="#bb000f"/>
    <path id="Контур_84" data-name="Контур 84" d="M180.29,285.964h-4.434a.374.374,0,1,0,0,.747h4.434a.374.374,0,1,0,0-.747Z" transform="translate(-166.8 -254.231)" fill="#bb000f"/>
    <path id="Контур_85" data-name="Контур 85" d="M77.992,286.337a.374.374,0,0,0,.374.374h2.846a.374.374,0,1,0,0-.747H78.366A.374.374,0,0,0,77.992,286.337Z" transform="translate(-74.133 -254.23)" fill="#bb000f"/>
    <path id="Контур_86" data-name="Контур 86" d="M66.223,166.328a.374.374,0,1,0,0-.747c-.209,0-.458-.105-.458-.606v-.527a1.147,1.147,0,0,1,0-1.321V162.6c0-.5.249-.606.458-.606a.374.374,0,1,0,0-.747,1.213,1.213,0,0,0-1.205,1.353v.527c0,.2-.036.209-.207.273-.039.015-.08.03-.121.049a.372.372,0,0,0-.027.663c.008.005.111.05.149.063.172.063.207.076.207.272v.527A1.213,1.213,0,0,0,66.223,166.328Z" transform="translate(-61.282 -135.685)" fill="#bb000f"/>
    <path id="Контур_87" data-name="Контур 87" d="M132.443,163.816c0,.5-.249.606-.458.606a.374.374,0,1,0,0,.747,1.213,1.213,0,0,0,1.205-1.353v-.525c0-.2.036-.209.207-.273.037-.014.076-.029.115-.046l.021-.011a.372.372,0,0,0-.018-.67c-.041-.018-.081-.033-.119-.047-.172-.063-.207-.076-.207-.273v-.527a1.213,1.213,0,0,0-1.205-1.353.374.374,0,1,0,0,.747c.209,0,.458.105.458.606v.527a1.147,1.147,0,0,1,0,1.321v.525Z" transform="translate(-125.099 -134.584)" fill="#bb000f"/>
    <path id="Контур_88" data-name="Контур 88" d="M86.434,340.974h-9.06a.374.374,0,1,0,0,.747h9.06a.374.374,0,1,0,0-.747Z" transform="translate(-73.19 -306.519)" fill="#bb000f"/>
    <path id="Контур_89" data-name="Контур 89" d="M85.442,396.013h-9.06a.374.374,0,1,0,0,.747h9.06a.374.374,0,1,0,0-.747Z" transform="translate(-72.247 -358.835)" fill="#bb000f"/>
    <path id="Контур_90" data-name="Контур 90" d="M410.174,52.089a1.166,1.166,0,1,0-1.169-1.166A1.168,1.168,0,0,0,410.174,52.089Zm0-1.586a.419.419,0,1,1-.421.419A.42.42,0,0,1,410.174,50.5Z" transform="translate(-388.768 -29.71)" fill="#bb000f"/>
    <path id="Контур_91" data-name="Контур 91" d="M342.014,52.089a1.166,1.166,0,1,0-1.168-1.166A1.168,1.168,0,0,0,342.014,52.089Zm0-1.586a.419.419,0,1,1-.42.419A.42.42,0,0,1,342.014,50.5Z" transform="translate(-323.982 -29.71)" fill="#bb000f"/>
    <path id="Контур_92" data-name="Контур 92" d="M273.828,52.089a1.166,1.166,0,1,0-1.168-1.166A1.168,1.168,0,0,0,273.828,52.089Zm0-1.586a.419.419,0,1,1-.42.419A.42.42,0,0,1,273.828,50.5Z" transform="translate(-259.169 -29.71)" fill="#bb000f"/>
    <path id="Контур_93" data-name="Контур 93" d="M22.446,18.5H2.885A2.887,2.887,0,0,0,0,21.382V39.118A2.888,2.888,0,0,0,2.885,42H22.446a2.888,2.888,0,0,0,2.887-2.884V21.382A2.888,2.888,0,0,0,22.446,18.5Zm0,22.755H2.885A2.14,2.14,0,0,1,.748,39.118V23.993H6.242a.374.374,0,1,0,0-.747H.748V21.382a2.139,2.139,0,0,1,2.137-2.135H22.446a2.139,2.139,0,0,1,2.139,2.135v1.864H7.954a.374.374,0,1,0,0,.747H24.585V39.118A2.14,2.14,0,0,1,22.446,41.255Z" fill="#bb000f"/>
    <path id="Контур_94" data-name="Контур 94" d="M300.9,276.514h-.1q-.04-.107-.087-.212l.07-.07a.758.758,0,0,0,0-1.072l-.724-.724a.761.761,0,0,0-1.074,0l-.07.069q-.1-.047-.212-.087v-.1a.759.759,0,0,0-.759-.757h-1.024a.759.759,0,0,0-.759.757v.121q-.1.038-.195.083l-.087-.087a.754.754,0,0,0-.537-.222h0a.751.751,0,0,0-.534.222l-.724.723a.758.758,0,0,0,0,1.073l.108.108q-.038.086-.07.174h-.154a.759.759,0,0,0-.758.759v1.023a.759.759,0,0,0,.758.759h.176q.031.079.066.157l-.125.125a.759.759,0,0,0,0,1.073l.723.721a.751.751,0,0,0,.535.223h0a.754.754,0,0,0,.537-.222l.124-.124q.078.035.158.066v.175a.76.76,0,0,0,.759.759h1.024a.76.76,0,0,0,.759-.759v-.154q.087-.033.174-.07l.107.107a.761.761,0,0,0,1.074,0l.724-.723a.759.759,0,0,0,0-1.073l-.087-.086q.044-.1.083-.195h.12a.76.76,0,0,0,.76-.759v-1.023A.76.76,0,0,0,300.9,276.514Zm.012,1.781a.014.014,0,0,1-.012.012h-.387a.374.374,0,0,0-.358.267,2.727,2.727,0,0,1-.24.563.373.373,0,0,0,.061.448l.279.279a.013.013,0,0,1,0,.017l-.724.723a.028.028,0,0,1-.017,0l-.294-.294a.374.374,0,0,0-.438-.067,2.875,2.875,0,0,1-.553.222.374.374,0,0,0-.272.36v.424a.012.012,0,0,1-.012.012h-1.024a.014.014,0,0,1-.012-.012v-.441a.374.374,0,0,0-.267-.358,2.7,2.7,0,0,1-.532-.223.374.374,0,0,0-.445.063l-.314.314a.01.01,0,0,1-.008,0h0a.009.009,0,0,1-.007,0l-.725-.723a.013.013,0,0,1,0-.017l.314-.314a.373.373,0,0,0,.064-.443,2.868,2.868,0,0,1-.225-.535.374.374,0,0,0-.358-.265h-.442a.012.012,0,0,1-.01-.012v-1.023a.012.012,0,0,1,.01-.012h.425a.374.374,0,0,0,.36-.272,2.74,2.74,0,0,1,.222-.548.373.373,0,0,0-.065-.44l-.3-.3a.01.01,0,0,1,0-.008.008.008,0,0,1,0-.007l.725-.724h0s0,0,.006,0h0a.011.011,0,0,1,.008,0l.279.279a.374.374,0,0,0,.448.061,2.8,2.8,0,0,1,.565-.241.374.374,0,0,0,.266-.358v-.387a.012.012,0,0,1,.012-.01h1.024a.011.011,0,0,1,.012.01v.37a.374.374,0,0,0,.272.359,2.816,2.816,0,0,1,.583.239.374.374,0,0,0,.444-.064l.259-.259a.032.032,0,0,1,.016,0l.725.726s0,0,0,.006a.01.01,0,0,1,0,.008l-.259.259a.373.373,0,0,0-.064.443,2.831,2.831,0,0,1,.239.583.374.374,0,0,0,.36.271h.37a.014.014,0,0,1,.012.012v1.022Z" transform="translate(-278.7 -242.442)" fill="#bb000f"/>
    <path id="Контур_95" data-name="Контур 95" d="M341.045,319.4A1.954,1.954,0,1,0,343,321.355,1.957,1.957,0,0,0,341.045,319.4Zm0,3.16a1.207,1.207,0,1,1,1.208-1.207A1.209,1.209,0,0,1,341.045,322.561Z" transform="translate(-322.312 -286.013)" fill="#bb000f"/>
  </g>
</svg>
