<svg id="success" xmlns="http://www.w3.org/2000/svg" width="66.508" height="66.507" viewBox="0 0 66.508 66.507">
  <g id="Сгруппировать_622" data-name="Сгруппировать 622">
    <g id="Сгруппировать_619" data-name="Сгруппировать 619" transform="translate(0 19.638)">
      <path id="Контур_6876" data-name="Контур 6876" d="M66.507,158.243v5.028L33.253,188.048l-.014.01L0,163.271v-5.028l9.2-7.058H57.3Z" transform="translate(0 -151.185)" fill="#186a81"/>
    </g>
    <path id="Контур_6877" data-name="Контур 6877" d="M289.253,158.243v5.028L256,188.048V151.185h24.05Z" transform="translate(-222.747 -131.547)" fill="#00465f"/>
    <g id="Сгруппировать_620" data-name="Сгруппировать 620" transform="translate(8.443)">
      <path id="Контур_6878" data-name="Контур 6878" d="M114.62,0V38.815L89.826,55.171l-.016-.01L65,38.81V0Z" transform="translate(-65)" fill="#eaf4f4"/>
    </g>
    <path id="Контур_6879" data-name="Контур 6879" d="M280.81,0V38.815L256.016,55.171l-.016-.01V0Z" transform="translate(-222.747)" fill="#cae8ea"/>
    <g id="Сгруппировать_621" data-name="Сгруппировать 621" transform="translate(0 31.724)">
      <path id="Контур_6880" data-name="Контур 6880" d="M66.507,248.113v30.9H0V244.228l33.239,20.9.03.019Z" transform="translate(0 -244.228)" fill="#ffe26f"/>
    </g>
    <path id="Контур_6881" data-name="Контур 6881" d="M289.158,244.228v34.783H255.89V265.13l.03.019Z" transform="translate(-222.651 -212.504)" fill="#ffc271"/>
  </g>
  <circle id="Эллипс_362" data-name="Эллипс 362" cx="16.442" cy="16.442" r="16.442" transform="translate(16.811 8.908)" fill="#00dc7b"/>
  <path id="Контур_6882" data-name="Контур 6882" d="M272.442,85.022A16.46,16.46,0,0,1,256,101.465V68.58A16.46,16.46,0,0,1,272.442,85.022Z" transform="translate(-222.747 -59.672)" fill="#00aa8e"/>
  <g id="Сгруппировать_623" data-name="Сгруппировать 623" transform="translate(25.888 19.704)">
    <path id="Контур_6883" data-name="Контур 6883" d="M214.03,154.445l-9.058,9.058L199.3,157.83l2.755-2.755,2.917,2.917,1.693-1.693,4.61-4.61Z" transform="translate(-199.3 -151.69)" fill="#fff"/>
  </g>
  <path id="Контур_6884" data-name="Контур 6884" d="M263.365,154.445,256,161.81V156.3l4.61-4.61Z" transform="translate(-222.747 -131.986)" fill="#eaf4f4"/>
</svg>
