<svg id="worldwide" xmlns="http://www.w3.org/2000/svg" width="21.224" height="21.22" viewBox="0 0 21.224 21.22">
  <g id="Сгруппировать_615" data-name="Сгруппировать 615" transform="translate(0 0)">
    <path id="Контур_6867" data-name="Контур 6867" d="M10.616.05A10.61,10.61,0,0,0,.861,6.484l-.132.044.051.154A10.609,10.609,0,1,0,10.616.05Zm8.322,15.959-.545-.544V14.2a.353.353,0,0,0-.035-.158l-1.379-2.755V9.953a.354.354,0,0,0-.157-.294l-1.061-.707a.354.354,0,0,0-.283-.049l-1.3.325L12,8.29l-.3-2.1.832-.832h1.786l.6.9a.354.354,0,0,0,.236.152l2.122.354a.351.351,0,0,0,.17-.013L19.4,6.1A9.867,9.867,0,0,1,18.938,16.009ZM17.48,3.535l-.575.383L15.3,3.6l-1.04-.346a.347.347,0,0,0-.2-.008l-1.315.329-.576-.192.427-.854h1.2a.354.354,0,0,0,.158-.037l1.224-.612A9.939,9.939,0,0,1,17.48,3.535ZM6.739,1.547l.849.566a.353.353,0,0,0,.138.054l1.714.286-.167.5-.893.3a.354.354,0,0,0-.191.153L7.173,5.1l-1.631.979-2.4.343a.354.354,0,0,0-.3.35V7.831a.354.354,0,0,0,.1.25l.6.6v.608L2.068,8.311l-.534-1.6A9.96,9.96,0,0,1,6.739,1.547Zm-1.007,11.6-1.6-.32L3.54,11.638v-.831L4.857,9.489l.488.976a.354.354,0,0,0,.317.2H7.937l.958,1.6a.354.354,0,0,0,.3.172h.983l-.248,1.24L8.595,15.008a.354.354,0,0,0-.1.25v.884L7.218,17.1a.354.354,0,0,0-.141.283v1.277l-.44-.146-.621-1.553V13.489A.354.354,0,0,0,5.732,13.143ZM4.669,18.58A9.9,9.9,0,0,1,1.142,7.768l.294.881a.353.353,0,0,0,.139.182l1.763,1.175-.4.4a.354.354,0,0,0-.1.25v1.061a.354.354,0,0,0,.037.158l.707,1.415a.354.354,0,0,0,.248.189l1.485.3v3.247a.354.354,0,0,0,.025.131l.707,1.768a.354.354,0,0,0,.217.2l1.061.354a.347.347,0,0,0,.11.018.354.354,0,0,0,.354-.354V17.557L9.057,16.6a.354.354,0,0,0,.141-.283V15.4l1.311-1.311a.354.354,0,0,0,.1-.181l.354-1.768a.354.354,0,0,0-.347-.423H9.4l-.958-1.6a.354.354,0,0,0-.3-.172H5.88L5.272,8.734a.354.354,0,0,0-.26-.191.347.347,0,0,0-.307.1L4.247,9.1V8.538a.354.354,0,0,0-.1-.25l-.6-.6V7.076l2.172-.31a.355.355,0,0,0,.132-.047L7.612,5.658a.353.353,0,0,0,.121-.121l.994-1.656.937-.313a.35.35,0,0,0,.224-.224l.354-1.061a.354.354,0,0,0-.277-.46L7.917,1.483l-.36-.24a9.875,9.875,0,0,1,6.8.253l-.646.323H12.381a.354.354,0,0,0-.318.2l-.707,1.415a.354.354,0,0,0,.2.493l1.061.354a.347.347,0,0,0,.2.008l1.315-.329.963.321a.26.26,0,0,0,.042.011l1.768.354a.351.351,0,0,0,.266-.052l.8-.537a9.977,9.977,0,0,1,1.064,1.421l-1.74.58-1.884-.314L14.8,4.805a.354.354,0,0,0-.292-.157H12.381a.354.354,0,0,0-.25.1L11.07,5.812a.354.354,0,0,0-.1.3l.354,2.476a.354.354,0,0,0,.212.275l2.476,1.061a.35.35,0,0,0,.225.018L15.5,9.626l.772.516v1.225a.353.353,0,0,0,.035.158l1.379,2.755v1.331a.354.354,0,0,0,.1.25l.74.74A9.9,9.9,0,0,1,4.669,18.58Z" transform="translate(0 -0.05)" fill="#005a68"/>
  </g>
</svg>
